<svg id="Layer_1" data-name="Layer 1" xmlns="http://www.w3.org/2000/svg" viewBox="0 0 500 290"><defs><style>.cls-1{fill:#fff}</style></defs><title>indiegogo</title><path class="cls-1" d="M366.7 12.61c-96.29 0-113.4 63.13-113.4 132.56 0 69.08 17.11 132.22 113.4 132.22 95.92 0 113-63.14 113-132.22.01-69.43-16.7-132.56-113-132.56zm0 203.73c-38 0-43.27-26.17-43.27-68.72 0-42.21 5.25-68.38 43.27-68.38 37.65 0 42.89 26.16 42.89 68.38 0 42.54-5.25 68.72-42.89 68.72zm-245.85-41.85h44.57V179c0 28.56.89 41.17-33.13 41.17-31.75 0-42.57-14.65-42.57-72.91 0-60.7 18.14-68 45.35-68 20.22 0 34.54 5.23 46.4 11.87l37-57.58C198.9 21 170.29 12.61 138.2 12.61c-89.3 0-117.91 42.91-117.91 132.56 0 78.14 20.93 132.22 105.7 132.22 15 0 27.92-1 39-3.14h63.53V118.32H128.48z"/></svg>