<svg id="Layer_1" data-name="Layer 1" xmlns="http://www.w3.org/2000/svg" viewBox="0 0 500 500"><defs><style>.cls-1{fill:#fff}</style></defs><title>krowdspace-logo-white</title><path class="cls-1" d="M246.79 66.11H39.9a20.82 20.82 0 0 1 0-41.64h206.89a20.82 20.82 0 0 1 0 41.64z"/><path class="cls-1" d="M246.79 71.94H39.9a26.65 26.65 0 1 1 0-53.3h206.89a26.65 26.65 0 1 1 0 53.3zM39.9 30.3a15 15 0 1 0 0 30h206.89a15 15 0 1 0 0-30zm206.89 239.94H39.9a20.82 20.82 0 0 1 0-41.64h206.89c52.34 0 101.92-22.45 139.59-63.23 32.63-35.31 52.9-81.33 52.9-120.09a20.82 20.82 0 0 1 41.64 0c0 49.55-23.91 105-64 148.34-45.6 49.38-106.04 76.62-170.13 76.62z"/><path class="cls-1" d="M246.79 276.07H39.9a26.65 26.65 0 0 1 0-53.3h206.89c50.7 0 98.75-21.79 135.31-61.35 31.68-34.28 51.35-78.78 51.35-116.13a26.65 26.65 0 1 1 53.3 0c0 51-24.49 107.91-65.51 152.3-46.76 50.61-108.71 78.48-174.45 78.48zM39.9 234.43a15 15 0 0 0 0 30h206.89c62.45 0 121.36-26.54 165.89-74.73 39.08-42.29 62.41-96.27 62.41-144.39a15 15 0 1 0-30 0c0 40.17-20.86 87.7-54.45 124-38.79 42-89.89 65.1-143.87 65.1z"/><path class="cls-1" d="M186.7 168.19H39.9a20.82 20.82 0 0 1 0-41.64h206.54c42.88-1 88.73-33.88 88.73-81.25a20.82 20.82 0 0 1 41.64 0c0 30.45-13.36 61.12-36.65 84.16-24.44 24.17-57.43 37.92-92.9 38.72-.86.01-26.51.01-60.56.01z"/><path class="cls-1" d="M186.7 174H39.89a26.65 26.65 0 0 1 0-53.3H246.4c40-1 82.94-31.49 82.94-75.42a26.65 26.65 0 1 1 53.3 0c0 32-14 64.18-38.38 88.3-25.51 25.22-59.91 39.57-96.87 40.4-.34.02-1.22.02-60.69.02zM39.9 132.37a15 15 0 0 0 0 30h207.25c34-.76 65.54-13.92 88.91-37 22.19-22 34.92-51.11 34.92-80a15 15 0 1 0-30 0c0 50.74-48.83 86-94.43 87.08-5.55-.04-137.3-.06-206.65-.08zm206.89 343.16H39.9a20.82 20.82 0 0 1 0-41.64h206.89a20.82 20.82 0 0 1 0 41.64z"/><path class="cls-1" d="M246.79 481.36H39.9a26.65 26.65 0 1 1 0-53.3h206.89a26.65 26.65 0 1 1 0 53.3zM39.9 439.72a15 15 0 0 0 0 30h206.89a15 15 0 1 0 0-30zm420.2 35.81a20.82 20.82 0 0 1-20.82-20.82c0-38.76-20.27-84.77-52.9-120.09-37.67-40.77-87.25-63.23-139.59-63.23H39.9a20.82 20.82 0 0 1 0-41.64h206.89c64.09 0 124.53 27.2 170.17 76.6 40 43.34 64 98.8 64 148.34a20.82 20.82 0 0 1-20.86 20.84z"/><path class="cls-1" d="M460.1 481.36a26.68 26.68 0 0 1-26.65-26.65c0-37.35-19.68-81.85-51.35-116.13-36.56-39.56-84.61-61.35-135.31-61.35H39.9a26.65 26.65 0 0 1 0-53.3h206.89c65.74 0 127.69 27.87 174.45 78.48 41 44.39 65.51 101.32 65.51 152.3a26.68 26.68 0 0 1-26.65 26.65zM39.9 235.59a15 15 0 0 0 0 30h206.89c54 0 105.08 23.12 143.87 65.1 33.59 36.35 54.45 83.88 54.45 124a15 15 0 1 0 30 0c0-48.12-23.33-102.09-62.41-144.39-44.53-48.19-103.44-74.73-165.89-74.73z"/><path class="cls-1" d="M356 475.53a20.82 20.82 0 0 1-20.82-20.82c0-38.43-36.3-81.25-88.39-81.25H39.9a20.82 20.82 0 0 1 0-41.64h206.89a131.77 131.77 0 0 1 92 37.37c24.14 23.36 38 54.52 38 85.51A20.82 20.82 0 0 1 356 475.53z"/><path class="cls-1" d="M356 481.36a26.68 26.68 0 0 1-26.65-26.65c0-35.67-33.91-75.42-82.56-75.42H39.9a26.65 26.65 0 1 1 0-53.3h206.89a137.57 137.57 0 0 1 96.1 39c25.27 24.45 39.76 57.14 39.76 89.7A26.68 26.68 0 0 1 356 481.36zM39.9 337.66a15 15 0 0 0 0 30h206.89a95.53 95.53 0 0 1 67.84 27.91c16.76 16.65 26.37 38.22 26.37 59.14a15 15 0 1 0 30 0c0-29.42-13.2-59.06-36.2-81.32a126 126 0 0 0-88-35.73z"/></svg>