<svg id="Layer_1" data-name="Layer 1" xmlns="http://www.w3.org/2000/svg" viewBox="0 0 500 500"><defs><style>.cls-1{fill:#81e281}</style></defs><title>krowdspace-logo</title><path class="cls-1" d="M247 76.53H51.8a19.64 19.64 0 1 1 0-39.28H247a19.64 19.64 0 1 1 0 39.28z"/><path class="cls-1" d="M247 82H51.8a25.14 25.14 0 1 1 0-50.28H247A25.14 25.14 0 1 1 247 82zM51.8 42.75a14.14 14.14 0 1 0 0 28.25H247a14.14 14.14 0 1 0 0-28.28zM247 269.09H51.8a19.64 19.64 0 1 1 0-39.28H247c49.38 0 96.15-21.18 131.68-59.64 30.78-33.31 49.91-76.72 49.91-113.28a19.64 19.64 0 0 1 39.28 0c0 46.74-22.56 99.05-60.34 139.94-43.09 46.6-100.1 72.26-160.53 72.26z"/><path class="cls-1" d="M247 274.59H51.8a25.14 25.14 0 0 1 0-50.28H247c47.83 0 93.16-20.55 127.65-57.88 29.88-32.34 48.45-74.32 48.45-109.55a25.14 25.14 0 1 1 50.28 0c0 48.09-23.1 101.8-61.8 143.67C367.43 248.3 309 274.59 247 274.59zM51.8 235.32a14.14 14.14 0 0 0 0 28.28H247c58.91 0 114.49-25 156.49-70.5 36.87-39.9 58.88-90.81 58.88-136.21a14.14 14.14 0 1 0-28.28 0c0 37.89-19.68 82.73-51.37 117-36.62 39.62-84.82 61.43-135.72 61.43z"/><path class="cls-1" d="M190.28 172.83H51.79a19.64 19.64 0 0 1 0-39.28h194.84c40.45-1 83.71-32 83.71-76.65a19.64 19.64 0 0 1 39.28 0c0 28.72-12.6 57.66-34.58 79.39-23.06 22.8-54.18 35.78-87.64 36.53-.8 0-25 .01-57.12.01z"/><path class="cls-1" d="M190.28 178.33H51.79a25.14 25.14 0 0 1 0-50.28H246.6c37.74-.9 78.24-29.7 78.24-71.15a25.14 25.14 0 1 1 50.28 0c0 30.18-13.2 60.54-36.21 83.3-24.06 23.8-56.51 37.33-91.38 38.12-.31-.01-1.14.01-57.25.01zM51.8 139a14.14 14.14 0 0 0 0 28.28h195.49c32-.72 61.82-13.13 83.88-34.94 20.94-20.71 32.94-48.22 32.94-75.48a14.14 14.14 0 1 0-28.28 0c0 47.87-46.06 81.12-89.08 82.14-5.2.07-129.53 0-194.95 0zM247 462.75H51.8a19.64 19.64 0 0 1 0-39.28H247a19.64 19.64 0 1 1 0 39.28z"/><path class="cls-1" d="M247 468.25H51.8a25.14 25.14 0 0 1 0-50.28H247a25.14 25.14 0 1 1 0 50.28zM51.8 429a14.14 14.14 0 0 0 0 28.28H247a14.14 14.14 0 1 0 0-28.28zm396.4 33.75a19.64 19.64 0 0 1-19.64-19.64c0-36.56-19.12-80-49.91-113.28-35.54-38.46-82.31-59.64-131.68-59.64H51.8a19.64 19.64 0 1 1 0-39.28H247c60.46 0 117.47 25.66 160.53 72.26 37.78 40.89 60.34 93.2 60.34 139.94a19.64 19.64 0 0 1-19.67 19.64z"/><path class="cls-1" d="M448.2 468.25a25.17 25.17 0 0 1-25.14-25.14c0-35.24-18.56-77.21-48.45-109.55-34.48-37.32-79.81-57.88-127.61-57.88H51.8a25.14 25.14 0 0 1 0-50.28H247c62 0 120.46 26.29 164.57 74 38.69 41.88 61.8 95.58 61.8 143.67a25.17 25.17 0 0 1-25.17 25.18zM51.8 236.41a14.14 14.14 0 0 0 0 28.28H247c50.93 0 99.13 21.81 135.72 61.41 31.68 34.29 51.37 79.13 51.37 117a14.14 14.14 0 1 0 28.28 0c0-45.39-22-96.31-58.87-136.21-42-45.46-97.58-70.5-156.49-70.5z"/><path class="cls-1" d="M350 462.75a19.64 19.64 0 0 1-19.64-19.64c0-36.25-34.24-76.64-83.38-76.64H51.8a19.64 19.64 0 0 1 0-39.28H247a124.31 124.31 0 0 1 86.83 35.26c22.77 22 35.83 51.43 35.83 80.67A19.64 19.64 0 0 1 350 462.75z"/><path class="cls-1" d="M350 468.25a25.17 25.17 0 0 1-25.14-25.14c0-33.65-32-71.14-77.88-71.14H51.8a25.14 25.14 0 1 1 0-50.28H247a129.78 129.78 0 0 1 90.65 36.8c23.83 23.06 37.5 53.91 37.5 84.62A25.17 25.17 0 0 1 350 468.25zM51.8 332.69a14.14 14.14 0 1 0 0 28.28H247a90.12 90.12 0 0 1 64 26.33c15.81 15.74 24.88 36.08 24.88 55.81a14.14 14.14 0 1 0 28.28 0c0-27.75-12.45-55.71-34.15-76.71a118.84 118.84 0 0 0-83-33.71z"/></svg>