<svg id="Layer_1" data-name="Layer 1" xmlns="http://www.w3.org/2000/svg" viewBox="0 0 1903 241"><defs><style>.cls-1{fill:#fff}</style></defs><title>indiegogo-full</title><path class="cls-1" d="M257.38 23.74h51.72v193.52h-51.72zm183.92 89.59l-52.24-89.59h-54.33v193.52h49.1V116.71l.79.02 59.28 100.53h47.52V23.74h-49.35v89.59h-.77zm75.94-89.59v193.52h65c61.37 0 90.36-15.41 90.36-96.89 0-79.91-29.5-96.63-91.13-96.63zm102.9 96.89c0 48.85-13.84 52-33.17 52h-18V70.75h15.93c21.91 0 35.23 1.31 35.23 49.88zm71-96.89h51.71v193.52h-51.71zm478.93-2.35c-72.07 0-84.87 47.26-84.87 99.24 0 51.71 12.8 99 84.87 99 71.82 0 84.62-47.27 84.62-99 .01-51.98-12.54-99.24-84.62-99.24zm0 152.51c-28.46 0-32.38-19.59-32.38-51.44 0-31.6 3.92-51.19 32.38-51.19 28.21 0 32.13 19.59 32.13 51.19 0 31.85-3.91 51.44-32.13 51.44zm362.48-152.51c-72.09 0-84.89 47.26-84.89 99.24 0 51.71 12.81 99 84.89 99 71.81 0 84.6-47.27 84.6-99 0-51.98-12.53-99.24-84.6-99.24zm0 152.51c-28.47 0-32.4-19.59-32.4-51.44 0-31.6 3.93-51.19 32.4-51.19 28.18 0 32.11 19.59 32.11 51.19 0 31.85-3.93 51.44-32.11 51.44zm101.28 12.74c-9.43 0-11.75 6.37-11.75 14.72s2.31 14.64 11.75 14.64 11.79-6.34 11.79-14.64-2.4-14.72-11.79-14.72zm0 27.28c-7.72 0-9.5-5.46-9.5-12.56s1.77-12.6 9.5-12.6 9.54 5.45 9.54 12.6-1.81 12.56-9.54 12.56z"/><path class="cls-1" d="M1640.32 198c0-3.51-1.16-5.53-5.68-5.53H1628V210h3.59v-6.18h2.28l2.71 6.18h3.67l-2.94-6.53c2.31-.76 3.01-2.69 3.01-5.47zm-5.83 2.9h-2.95v-5.29h2.95c1.74 0 2.32.73 2.32 2.66s-.58 2.67-2.32 2.67zM986 142.58h33.36V146c0 21.38.67 30.82-24.8 30.82-23.77 0-31.87-11-31.87-54.58 0-45.44 13.58-50.93 34-50.93a67.81 67.81 0 0 1 34.74 8.89l27.68-43.1c-14.63-9.4-36-15.67-60.07-15.67-66.85 0-88.27 32.13-88.27 99.24 0 58.5 15.67 99 79.13 99a158 158 0 0 0 29.22-2.35h47.56v-116.8h-74.93zm362.5 0h33.36V146c0 21.38.67 30.82-24.8 30.82-23.77 0-31.87-11-31.87-54.58 0-45.44 13.58-50.93 34-50.93a67.81 67.81 0 0 1 34.74 8.89l27.68-43.1c-14.63-9.4-36-15.67-60.07-15.67-66.85 0-88.27 32.13-88.27 99.24 0 58.5 15.67 99 79.13 99a158 158 0 0 0 29.22-2.35h47.56v-116.8h-74.92zM897.15 71.01V23.74H768.66v193.52h128.49V171.3h-77.82v-29h51.11l6.24-45.95h-57.35V71.01h77.82z"/></svg>