<svg id="Layer_1" data-name="Layer 1" xmlns="http://www.w3.org/2000/svg" viewBox="0 0 1903 241"><defs><style>.cls-1{fill:#fff}</style></defs><title>kickstarter-full</title><path class="cls-1" d="M105.48 83.77l37.21-53.91q10.55-15.23 27.25-15.23a32.73 32.73 0 0 1 23.58 9.67 31.13 31.13 0 0 1 10 23.14A30.11 30.11 0 0 1 198.2 65l-33.54 48.8 41 52a28.39 28.39 0 0 1 6.17 18.2 32.65 32.65 0 0 1-9.67 23.66 31.57 31.57 0 0 1-23.44 9.89q-15.09 0-23-9.81L105.48 145v34.57q0 14.8-5.13 23-9.35 14.94-27.24 14.94-16.26 0-25.2-11-8.35-10.11-8.35-26.81V51.54q0-15.82 8.5-26.07Q57 14.63 72.67 14.63a32.42 32.42 0 0 1 24.9 10.84q5.56 6 7 12.16.88 3.81.88 14.21zM293.27 55.5v124.07q0 16.12-8.35 26.51-8.94 11.43-24.76 11.43a32.13 32.13 0 0 1-24.46-10.69q-8.35-8.93-8.35-27.25V55.5q0-20.8 8.35-30.18 9.52-10.69 24.46-10.69t24.46 10.55q8.65 9.66 8.65 30.32zM419.4 10.67q36.47-.14 67.09 24.46 24 19.34 24 40 0 17.58-14.65 27.25a32.08 32.08 0 0 1-18.16 5.57 32.87 32.87 0 0 1-15.38-3.81q-3.08-1.61-15.23-14.79A36.75 36.75 0 0 0 418.81 77q-16.41 0-27.47 11.35t-11.06 27.76a38.08 38.08 0 0 0 11.06 27.61 36.62 36.62 0 0 0 27.32 11.35q13.48 0 25-9.08 7.17-6.88 14.21-13.77 7.61-6.59 19.34-6.59a32.69 32.69 0 0 1 23.36 9.45 30.53 30.53 0 0 1 9.94 22.92q0 18.31-21.53 37.06-30.18 26.37-69.73 26.37a105.33 105.33 0 0 1-46.14-10.4 103.89 103.89 0 0 1-43.58-38.75 102.41 102.41 0 0 1-16.19-55.88q0-45.4 33.66-77.31Q376.77 11 419.4 10.67zm175.19 73.1l37.21-53.91q10.54-15.23 27.2-15.23a32.73 32.73 0 0 1 23.58 9.67 31.13 31.13 0 0 1 10 23.14A30.11 30.11 0 0 1 687.32 65l-33.55 48.8 41 52a28.39 28.39 0 0 1 6.17 18.2 32.65 32.65 0 0 1-9.67 23.66 31.57 31.57 0 0 1-23.44 9.89q-15.09 0-23-9.81L594.59 145v34.57q0 14.8-5.13 23-9.38 14.94-27.25 14.94-16.26 0-25.2-11-8.35-10.11-8.35-26.81V51.54q0-15.82 8.5-26.07 8.93-10.84 24.61-10.84a32.42 32.42 0 0 1 24.9 10.84q5.56 6 7 12.16.88 3.81.88 14.21zm145.9 56.69q11 0 23.44 9.67 15.52 12.16 21.24 12.16 8.49 0 8.5-8.79 0-4.83-5-8.2-2.67-1.76-29.58-11.3Q715 118.49 715 76.59q0-31.64 23.29-50 20.36-16 50.39-16 25.93 0 45.12 12.38T853 54.91q0 11.72-7.25 19.56t-18.82 7.84q-12.16 0-27-11.57-9.23-7.17-13.92-7.18-8.06 0-8.06 7.91 0 7.47 19.92 13.62 27.54 8.65 42.63 21.09 20.07 16.7 20.07 46.88 0 32.82-22.56 51.27-21 17.14-54.49 17.14T728 203.59q-17.58-14.21-17.58-33.25a28.56 28.56 0 0 1 8.64-21.24 29.84 29.84 0 0 1 21.43-8.64zm176.37-62.99h-17.44q-14.5 0-24-7.91-10.11-8.49-10.11-22.71a31 31 0 0 1 4.76-16.33 26.92 26.92 0 0 1 12.3-11.13q7.54-3.3 35.82-3.3h66.5q24.46 0 31.64 2.93a27 27 0 0 1 12.82 11.06 30.59 30.59 0 0 1 4.85 16.48q0 13.62-10.84 23.73-7.77 7.18-25.34 7.18h-15.05v99.61q0 16.26-5.57 25.2-9.38 14.94-27.1 14.94t-27.25-13.62q-6-8.49-6-25.78zM1083 190.12q-4.69 11.13-9.67 16.55-10 10.84-24.17 10.84-17.43 0-27.1-14.06a32.44 32.44 0 0 1-5.71-18.75 41 41 0 0 1 4.1-17.43L1083 34.11q9.08-19.48 30.32-19.48 21.53 0 30.91 20.07l63.13 134.18a37.14 37.14 0 0 1 3.81 16 31.45 31.45 0 0 1-7.62 20.8 31.8 31.8 0 0 1-25.55 11.83q-12.74 0-21.24-7.91-6.3-5.86-12.6-19.48zM1353.82 139l15.53 24.9a40.12 40.12 0 0 1 6.45 21.39q0 13.92-9.59 23.07a32.77 32.77 0 0 1-23.51 9.16q-17.87 0-27.1-15.23l-27.6-45.13v27.1a33 33 0 0 1-9.16 23.58q-9.16 9.67-23.07 9.67-17 0-25.78-12.16-7.91-10.69-7.91-28.12V54q0-37.94 40.87-37.94h41.89A67.37 67.37 0 0 1 1343.27 28a70.32 70.32 0 0 1 25.93 31 72.72 72.72 0 0 1 6.15 28.86q0 27.14-21.53 51.14zm78.37-61.53h-17.43q-14.5 0-24-7.91-10.11-8.49-10.11-22.71a31 31 0 0 1 4.76-16.33 26.92 26.92 0 0 1 12.3-11.13q7.54-3.3 35.82-3.3H1500q24.46 0 31.64 2.93a27 27 0 0 1 12.82 11.06 30.59 30.59 0 0 1 4.91 16.48q0 13.62-10.84 23.73-7.77 7.18-25.34 7.18h-15.09v99.61q0 16.26-5.57 25.2-9.38 14.94-27.1 14.94t-27.25-13.62q-6-8.49-6-25.78zm195.41 76.76h30q18.56 0 27.63 7.62 10.67 9.08 10.67 23.44 0 14.65-10.69 23.73-8.35 7-27.39 7h-51.42q-18.17 0-24.9-2.78-13.18-5.42-17.43-17.72-2.64-7.91-2.64-25.93V60.92q0-13.62.88-18.31A30.48 30.48 0 0 1 1570 26.5a32 32 0 0 1 17.9-9.5q5.13-.88 20.8-.88h39.4q16.11 0 18.75.29 10.55 1 17.29 6.15 12 9.08 12 23.73 0 15.82-10.52 24.17-9.35 7.47-25.58 7.47h-32.44v13.6h25.86q11.39 0 18.84 6 7.89 6.45 7.89 17.72 0 23.88-29.07 23.88h-23.52zM1847.18 139l15.53 24.9a40.12 40.12 0 0 1 6.45 21.39q0 13.92-9.59 23.07a32.77 32.77 0 0 1-23.51 9.16q-17.87 0-27.1-15.23l-27.54-45.12v27.1a33 33 0 0 1-9.16 23.58q-9.16 9.67-23.07 9.67-17 0-25.78-12.16-7.91-10.69-7.91-28.12V54q0-37.94 40.87-37.94h41.89A67.37 67.37 0 0 1 1836.63 28a70.32 70.32 0 0 1 25.93 31 72.72 72.72 0 0 1 6.15 28.86q0 27.14-21.53 51.14z"/></svg>