<svg id="Layer_1" data-name="Layer 1" xmlns="http://www.w3.org/2000/svg" viewBox="0 0 1931 272"><defs><style>.cls-1{fill:#81e281}.cls-2{fill:#fff}.cls-3{fill:#333}</style></defs><title>6</title><circle class="cls-1" cx="180.75" cy="136" r="94.25"/><path class="cls-2" d="M180.05 95.89h-45.13a4.54 4.54 0 1 1 0-9.08h45.13a4.54 4.54 0 1 1 0 9.08z"/><path class="cls-2" d="M180.05 97.16h-45.13a5.81 5.81 0 1 1 0-11.62h45.13a5.81 5.81 0 1 1 0 11.62zm-45.13-9.08a3.27 3.27 0 1 0 0 6.54h45.13a3.27 3.27 0 1 0 0-6.54zm45.13 52.33h-45.13a4.54 4.54 0 1 1 0-9.08h45.13c11.42 0 22.23-4.9 30.45-13.79 7.11-7.7 11.5-17.74 11.5-26.19a4.54 4.54 0 0 1 9.08 0c0 10.81-5.21 22.9-14 32.36-9.87 10.77-23.08 16.7-37.03 16.7z"/><path class="cls-2" d="M180.05 141.69h-45.13a5.81 5.81 0 0 1 0-11.62h45.13c11.06 0 21.54-4.75 29.51-13.38 6.91-7.48 11.2-17.18 11.2-25.33a5.81 5.81 0 1 1 11.62 0c0 11.12-5.34 23.54-14.29 33.22-10.19 11.03-23.7 17.11-38.04 17.11zm-45.13-9.08a3.27 3.27 0 0 0 0 6.54h45.13c13.62 0 26.47-5.79 36.18-16.3 8.52-9.22 13.61-21 13.61-31.49a3.27 3.27 0 1 0-6.54 0c0 8.76-4.55 19.13-11.88 27.06-8.46 9.16-19.61 14.2-31.38 14.2z"/><path class="cls-2" d="M166.94 118.16h-32a4.54 4.54 0 0 1 0-9.08H180c9.35-.22 19.35-7.39 19.35-17.72a4.54 4.54 0 0 1 9.08 0 26.18 26.18 0 0 1-8 18.36 29.58 29.58 0 0 1-20.26 8.45z"/><path class="cls-2" d="M166.94 119.43h-32a5.81 5.81 0 0 1 0-11.62h45c8.73-.21 18.09-6.87 18.09-16.45a5.81 5.81 0 1 1 11.62 0 27.46 27.46 0 0 1-8.37 19.26 30.85 30.85 0 0 1-21.13 8.81zm-32-9.09a3.27 3.27 0 0 0 0 6.54h45.2a28.31 28.31 0 0 0 19.39-8.08 24.9 24.9 0 0 0 7.62-17.45 3.27 3.27 0 1 0-6.54 0c0 11.07-10.65 18.76-20.6 19zm45.11 74.85h-45.13a4.54 4.54 0 0 1 0-9.08h45.13a4.54 4.54 0 0 1 0 9.08z"/><path class="cls-2" d="M180.05 186.46h-45.13a5.81 5.81 0 1 1 0-11.62h45.13a5.81 5.81 0 0 1 0 11.62zm-45.13-9.08a3.27 3.27 0 0 0 0 6.54h45.13a3.27 3.27 0 1 0 0-6.54zm91.66 7.81a4.54 4.54 0 0 1-4.54-4.54c0-8.45-4.42-18.49-11.54-26.19-8.22-8.89-19-13.79-30.45-13.79h-45.13a4.54 4.54 0 0 1 0-9.08h45.13c14 0 27.16 5.93 37.12 16.71 8.74 9.45 14 21.55 14 32.36a4.54 4.54 0 0 1-4.59 4.53z"/><path class="cls-2" d="M226.58 186.46a5.82 5.82 0 0 1-5.81-5.81c0-8.15-4.29-17.85-11.2-25.33-8-8.63-18.45-13.38-29.51-13.38h-45.14a5.81 5.81 0 1 1 0-11.62h45.13c14.34 0 27.85 6.08 38.05 17.12 8.95 9.68 14.29 22.1 14.29 33.22a5.82 5.82 0 0 1-5.81 5.8zm-91.65-53.6a3.27 3.27 0 0 0 0 6.54h45.13c11.78 0 22.92 5 31.38 14.2 7.33 7.93 11.88 18.29 11.88 27.06a3.27 3.27 0 1 0 6.54 0c0-10.5-5.09-22.27-13.61-31.49-9.71-10.51-22.56-16.3-36.18-16.3z"/><path class="cls-2" d="M203.87 185.19a4.54 4.54 0 0 1-4.54-4.54c0-8.38-7.92-17.72-19.28-17.72h-45.13a4.54 4.54 0 0 1 0-9.08h45.13a28.74 28.74 0 0 1 20.08 8.15 26.32 26.32 0 0 1 8.28 18.65 4.54 4.54 0 0 1-4.54 4.54z"/><path class="cls-2" d="M203.87 186.46a5.82 5.82 0 0 1-5.81-5.81c0-7.78-7.4-16.45-18-16.45h-45.14a5.81 5.81 0 0 1 0-11.62h45.13a30 30 0 0 1 21 8.51 27.59 27.59 0 0 1 8.67 19.56 5.82 5.82 0 0 1-5.85 5.81zm-68.95-31.34a3.27 3.27 0 0 0 0 6.54h45.13a20.84 20.84 0 0 1 14.8 6.09 18.58 18.58 0 0 1 5.75 12.9 3.27 3.27 0 1 0 6.54 0 25 25 0 0 0-7.9-17.74 27.48 27.48 0 0 0-19.19-7.79z"/><path class="cls-3" d="M393.56 184.58l-.42 1.1a8.63 8.63 0 0 1 .34 2.66 3.9 3.9 0 0 1-1.6 3 6.34 6.34 0 0 1-4.22 1.35q-5 0-5-11.07 0-16.47-1.73-62.26t-3.51-48.49q.08-9 12.25-9.54 1.86-.08 5-.08a9.07 9.07 0 0 1 5 1.18q1.82 1.18 1.82 4.82t-4.81 3.63l-4.22-.17q-4.81 0-4.81 1.94 0 8 1.27 23.53t1.35 22.93a28.22 28.22 0 0 0 3-.68 28 28 0 0 1 6.5-1.18 4.4 4.4 0 0 1 3.51 1.65 5.55 5.55 0 0 1 1.39 3.67q0 5.66-14.36 5.66 0 9.38 1.65 28.13t1.6 28.22zm48.39-55.42l-4.31-.17a4.31 4.31 0 0 0-3.55 1.27v53.39q8.87-.51 9.63-.51 9.88 0 9.88 4.56v.59a7.85 7.85 0 0 1-4.05 3.63 15.91 15.91 0 0 1-5.07 1.44q-2.2.17-5.66.17h-5.41q-6.42 0-7.94-2.53a6.26 6.26 0 0 1-.68-3.12V87.35a48.51 48.51 0 0 0-1.18-8.79 48.53 48.53 0 0 1-1.18-8.87v-.59a33.56 33.56 0 0 1 4.31-6.1l12.84-1.52a10.38 10.38 0 0 1 5.28 1.56 4.65 4.65 0 0 1 2.66 4.1q0 5.15-7.86 5.15l-5-.17a14.7 14.7 0 0 0-1.86.08l1.35 28.55q0 3.46-.42 10.09t-.42 9.67q.93-.17 2.53-.59a23.49 23.49 0 0 1 5.53-.93 5.11 5.11 0 0 1 3.55 1.44 4.54 4.54 0 0 1 1.56 3.46 5.71 5.71 0 0 1-1.27 3.63 4 4 0 0 1-3.26 1.64zm68.4 63.27q-5.32 0-5.32-4.48V165.4q-2.45-1.69-8.83-2.87a100.56 100.56 0 0 0-11.36-1.53 29.21 29.21 0 0 0-2.91 8.79q-1.14 5.75-2.37 11.57a30.19 30.19 0 0 1-3.25 9.21q-6.76 0-7.6-3.46 2.36-3.38 7.69-34.55t8.74-48.78a244.26 244.26 0 0 1 7.39-29.61q4-12 7.6-12a8.88 8.88 0 0 1 5.58 1.52q0 6.17 3.38 33.37t3.38 35.18q0 8 1.82 26.52t1.82 27.83q-.02 5.84-5.76 5.84zM503.08 136q-1.52-15.33-2.75-29.23t-1.22-16.81a32.44 32.44 0 0 1 .08-3.34q-2.7 2.79-7.81 31t-5.45 35.73a47.64 47.64 0 0 0 12 1.94 32.15 32.15 0 0 0 6.88-.51q-.2-3.49-1.73-18.78zm51.09-43.92l-.34 22.3 1.52 39.79 1.44 31.09q0 8.45-5 8.45a4.45 4.45 0 0 1-4.22-2.7 13.21 13.21 0 0 1-1.35-6l1.35-27.62q0-9-1.18-26.95t-1.18-26.95l.25-15.12q0-12.42-1.6-16.13l-9.38.93a6.33 6.33 0 0 1-3.93-1.31 4 4 0 0 1-1.73-3.38q0-2.07 4.14-3.51a45.4 45.4 0 0 1 10.14-2.2 159.1 159.1 0 0 1 17.49-1.18 6 6 0 0 1 3.85 1.41 4.32 4.32 0 0 1 1.73 3.51 4.05 4.05 0 0 1-1.52 3.34 5.73 5.73 0 0 1-3.72 1.15l-6.17-.34a13.74 13.74 0 0 0-1.77.08 181.05 181.05 0 0 1 1.18 21.34zM583 98.33l.17-27a5.17 5.17 0 0 1-1.27-3.55 5.32 5.32 0 0 1 1.52-3.78 4.61 4.61 0 0 1 3.51-1.61q6.25 0 6.25 12.33l1.6 60.14q1 2.28 1.73 9.21t.72 10.77a45.73 45.73 0 0 0 1.22 9.46 82.22 82.22 0 0 0 3.38 11.36 30.18 30.18 0 0 0 5.83 9.8q3.67 4.05 7 4.05a6.78 6.78 0 0 0 4.9-1.56 8.37 8.37 0 0 0 2.2-4.43 47.74 47.74 0 0 0 .93-9.54v-33.75q0-5.49-1.1-16.3t-1.1-16.3v-1.18l-.34-10.05-1.27-29.65a3.91 3.91 0 0 1 2.12-3.43 8.22 8.22 0 0 1 4.37-1.32l4.22 4.05v2.87l-1.27 10.56q0 14.44 1.56 43.5t1.56 39.32q0 10.26-.3 13.68a44.21 44.21 0 0 1-1.31 7.31 19.89 19.89 0 0 1-2.79 6.42q-4.14 5.91-12.67 5.91-10.56.08-17-9.21a62 62 0 0 1-9.43-23.41 206 206 0 0 1-3.89-28.3Q583 116.32 583 98.33zm71.32 89.12L655 86V64.71a4 4 0 0 1 .84-2.87q.84-.84 4.43-.84a17 17 0 0 1 7.26 1.73 18.94 18.94 0 0 1 6.21 4.6 34.23 34.23 0 0 1 4.26 6.76 36.25 36.25 0 0 1 3.38 15.63q0 8.45-4.22 19.34-.51 1.18-2 5t-1.77 4.48q.08 12.84 6.5 33.37 2.2 6.93 6.25 19t5.07 15.25v.42q0 5.83-1.35 6.8a4.84 4.84 0 0 1-2.87 1q-3.21 0-6.25-4.65v-.59q-.85-15.71-10.81-47.56-4.63-14.58-6.4-21.58v68.17a7.45 7.45 0 0 1-.93 4.05 3.72 3.72 0 0 1-3.38 1.44 4.63 4.63 0 0 1-3.67-1.39 5 5 0 0 1-1.22-3.42zm9.55-118.51l-.93 35.31q0 5.32.17 7.94a50 50 0 0 0 5.83-6.67l2.7-15a13 13 0 0 0 .25-2.7 37.69 37.69 0 0 0-1.69-10.02q-2.36-8.11-6.33-8.87zm64.94 60.22l-4.31-.16a4.31 4.31 0 0 0-3.55 1.27v53.39q8.87-.51 9.63-.51 9.88 0 9.88 4.56v.59a7.85 7.85 0 0 1-4.05 3.63 15.91 15.91 0 0 1-5.07 1.44q-2.2.17-5.66.17h-5.41q-6.42 0-7.94-2.53a6.26 6.26 0 0 1-.68-3.12V87.35a48.51 48.51 0 0 0-1.18-8.79 48.53 48.53 0 0 1-1.18-8.87v-.59a33.56 33.56 0 0 1 4.31-6.1l12.84-1.52a10.38 10.38 0 0 1 5.28 1.56 4.65 4.65 0 0 1 2.66 4.1q0 5.15-7.86 5.15l-5-.17a14.7 14.7 0 0 0-1.86.08l1.34 28.58q0 3.46-.42 10.09t-.42 9.67q.93-.17 2.53-.59a23.49 23.49 0 0 1 5.53-.93 5.11 5.11 0 0 1 3.55 1.44 4.54 4.54 0 0 1 1.56 3.46 5.71 5.71 0 0 1-1.27 3.63 4 4 0 0 1-3.25 1.61zm73.55-.34l.42 3.63q.08 12.25-6.5 28.89-7.43 19-17.57 26.95a19.31 19.31 0 0 1-11.83 4.65 11.64 11.64 0 0 1-5.83-1.48 4.78 4.78 0 0 1-2.62-4.43q3.8-4 3.8-20.36 0-9.63-1.6-28.64T759 109.56l.51-18.92a54.58 54.58 0 0 0-1.9-12.29q-1.9-7.73-1.9-10.94 0-6 13.26-6h2.62q17.65 0 25.6 19.77 5.58 13.77 5.58 38v8a3.25 3.25 0 0 0-.41 1.64zm-31.85 37.51v16.56a38.2 38.2 0 0 0 11.32-11.78 61.94 61.94 0 0 0 7.35-16.51 128.17 128.17 0 0 0 4.73-34.21q0-19.6-4.9-30.92-5-11.66-12.33-15.37a21.37 21.37 0 0 0-10.31-2.28V72q0 15.63 2.07 47.05t2.08 47.28zm126.26-26.02l-1.52 21.88v.81a46.66 46.66 0 0 0-1.1 10.39 30.5 30.5 0 0 1-1.94 10.77 25.83 25.83 0 0 1-5.91 9.21 12.06 12.06 0 0 1-8.7 4 13.21 13.21 0 0 1-8.62-3.21 25.22 25.22 0 0 1-6.42-8.24 66.3 66.3 0 0 1-4.48-12 122 122 0 0 1-3-13.6q-1.06-6.63-1.73-14-1-11.23-1-17.44t0-10.64q-.08-4.43-.17-8v-8.53q.08-5 .3-9t.76-8.57a70.61 70.61 0 0 1 1.39-8.11 43.74 43.74 0 0 1 2.28-6.88 23.13 23.13 0 0 1 3.38-5.66q4.22-4.9 9.71-4.9a20.42 20.42 0 0 1 9.38 2 16.5 16.5 0 0 1 6.53 6.41q2.66 4.39 4.65 8.53a42.45 42.45 0 0 1 3.13 11.53q1.14 7.39 1.82 12a123.87 123.87 0 0 1 .93 13.26q.34 11.57.34 18.08zM881.44 77a18.34 18.34 0 0 0-4.31-6.84 7.6 7.6 0 0 0-5.13-2.41 5.46 5.46 0 0 0-4.18 1.77 14.28 14.28 0 0 0-2.79 5 70.94 70.94 0 0 0-2 7 63.19 63.19 0 0 0-1.35 8.57q-.47 4.86-.8 8.83t-.42 8.62q-.17 7.86-.25 12.25v.76a190.74 190.74 0 0 0 1.77 25q1.77 13.39 3.67 21.92a56.37 56.37 0 0 0 5.11 14.49q3.21 6 7.18 6 3.46 0 5.83-6.5a70.43 70.43 0 0 0 3.38-16.22q1.69-17.23 1.73-24.2t0-10.18q0-3.21-.25-9.33t-.72-11.49q-.51-5.36-1.31-11.87a91.54 91.54 0 0 0-2.11-11.57 84 84 0 0 0-3.05-9.6zm36.77 24.88l1.18-31.76V69q0-8.62 3.8-8.62 3.46 0 9.29 16 10.64 29.14 25.51 96.21l.17.84.68-60.31V62q1-4.31 5.66-4.31t4.65 6.76v1a11.62 11.62 0 0 0-1 5.07L967 134.48v52.88a10.34 10.34 0 0 1-1.44 5.15q-1.44 2.53-3.55 2.53-3.63 0-14.19-35.61T927 82.87v56.77q0 8.28 1.23 24.67t1.21 24.69a3.08 3.08 0 0 1-1.94 2.66 10.27 10.27 0 0 1-4.94 1.06q-3 0-3-2.7l.84-12.42q0-9-1.1-29.06t-1.1-24.58zm104.54 34.88l.25-32.86a181.79 181.79 0 0 0-1.27-19.9q-1.27-11.32-1.27-14.83t1.39-5.15a4.4 4.4 0 0 1 3.51-1.65q6.42 0 6.42 14 0 .08-.76 35.56.59-1.44 3.29-8.45t5.58-14.11q3-7 6.25-14.61 7.44-17.06 10.86-17.06a5 5 0 0 1 3.42 1.31 4 4 0 0 1 1.48 3.13q0 1.82-9.42 21.58t-10.6 25.09v3q2.53 6.42 13.81 42t11.28 37.72a4.52 4.52 0 0 1-1.69 3.59 5.72 5.72 0 0 1-3.8 1.44l-4.05-.68q-4.31-24.58-9-42.87a208 208 0 0 0-12.16-34.84q-5.15 9.21-5.41 11.15-.51 5.24-.51 8.28l1.1 32.1v14.2q0 9.21-5.91 9.21-5.07 0-5.07-8.74t1.14-24.29q1.14-15.54 1.14-23.32zm63.33 50.69l.68-101.45V64.71a4 4 0 0 1 .84-2.87q.84-.84 4.43-.84a17 17 0 0 1 7.26 1.73 18.94 18.94 0 0 1 6.21 4.6 34.23 34.23 0 0 1 4.22 6.76 36.25 36.25 0 0 1 3.38 15.63q0 8.45-4.22 19.34-.51 1.18-2 5t-1.77 4.48q.08 12.84 6.5 33.37 2.2 6.93 6.25 19t5.07 15.25v.42q0 5.83-1.35 6.8a4.84 4.84 0 0 1-2.87 1q-3.21 0-6.25-4.65v-.59q-.85-15.71-10.81-47.56-4.56-14.53-6.34-21.54v68.17a7.45 7.45 0 0 1-.93 4.05 3.72 3.72 0 0 1-3.38 1.44 4.63 4.63 0 0 1-3.67-1.39 5 5 0 0 1-1.22-3.42zm9.55-118.51l-.93 35.31q0 5.32.17 7.94a50 50 0 0 0 5.83-6.67l2.7-15a13 13 0 0 0 .25-2.7A37.69 37.69 0 0 0 1102 77.8q-2.4-8.11-6.37-8.87zm84.71 71.37l-1.52 21.88v.81a46.66 46.66 0 0 0-1.1 10.39 30.5 30.5 0 0 1-1.94 10.77 25.83 25.83 0 0 1-5.91 9.21 12.06 12.06 0 0 1-8.7 4 13.21 13.21 0 0 1-8.62-3.21 25.22 25.22 0 0 1-6.42-8.24 66.3 66.3 0 0 1-4.48-12 122 122 0 0 1-3-13.6q-1.06-6.63-1.73-14-1-11.23-1-17.44t0-10.64q-.08-4.43-.17-8v-8.53q.08-5 .3-9t.76-8.57a70.61 70.61 0 0 1 1.39-8.11 43.74 43.74 0 0 1 2.28-6.88 23.13 23.13 0 0 1 3.38-5.66q4.22-4.9 9.71-4.9a20.42 20.42 0 0 1 9.38 2 16.5 16.5 0 0 1 6.55 6.38q2.66 4.39 4.65 8.53a42.45 42.45 0 0 1 3.13 11.53q1.14 7.39 1.82 12a123.87 123.87 0 0 1 .93 13.26q.34 11.57.34 18.08zM1165 77a18.34 18.34 0 0 0-4.31-6.84 7.6 7.6 0 0 0-5.11-2.41 5.46 5.46 0 0 0-4.18 1.77 14.28 14.28 0 0 0-2.79 5 70.94 70.94 0 0 0-2 7 63.19 63.19 0 0 0-1.35 8.57q-.47 4.86-.8 8.83t-.42 8.62q-.17 7.86-.25 12.25v.76a190.74 190.74 0 0 0 1.77 25q1.77 13.39 3.67 21.92a56.37 56.37 0 0 0 5.11 14.49q3.21 6 7.18 6 3.46 0 5.83-6.5a70.43 70.43 0 0 0 3.38-16.22q1.69-17.23 1.73-24.2t0-10.18q0-3.21-.25-9.33t-.72-11.49q-.51-5.36-1.31-11.87A91.54 91.54 0 0 0 1168 86.5a84 84 0 0 0-3-9.5zm89.15 111.88a6.83 6.83 0 0 1-1.31 4.31 4.57 4.57 0 0 1-3.84 1.69q-6.25 0-15.71-66.48-1.35-9.8-1.69-11.32-3.21 23.06-4.9 39.83a331.24 331.24 0 0 0-1.69 33.24 4.5 4.5 0 0 1-1.56 3.34A4.9 4.9 0 0 1 1220 195q-6.33 0-6.33-13.18 0-8.11-7.14-59.26t-9.08-56q2.2-4.14 6.17-4.14t7.22 18q3.25 18 5.58 43.63t2.41 26q.25-2.36 1.73-14.57t2.32-19.64q2.53-22.47 2.53-31.93v-3.32a5.67 5.67 0 0 1 1.39-3.59 4 4 0 0 1 3.17-1.73q6.16 0 6.17 5.07V83q0 16.73 7.77 48.4 3.38 13.85 4.81 22.22.93-9.54 3.38-27.62 5.32-39.36 5.32-60.65 0-3.8 1.27-5.53a4.78 4.78 0 0 1 4.14-1.73 6.93 6.93 0 0 1 4.52 1.35 4.28 4.28 0 0 1 1.65 3.46 5.41 5.41 0 0 1-1.77 3.89q0 25.17-6.55 61t-6.53 61.09zm76.93-60.06l.42 3.63q.08 12.25-6.5 28.89-7.43 19-17.57 26.95a19.31 19.31 0 0 1-11.83 4.65 11.63 11.63 0 0 1-5.83-1.48 4.78 4.78 0 0 1-2.62-4.43q3.8-4 3.8-20.36 0-9.63-1.6-28.64t-1.6-28.47l.51-18.92a54.58 54.58 0 0 0-1.9-12.29q-1.9-7.73-1.9-10.94 0-6 13.26-6h2.62q17.65 0 25.6 19.77 5.58 13.77 5.57 38v8a3.25 3.25 0 0 0-.43 1.64zm-31.85 37.51v16.56a38.2 38.2 0 0 0 11.32-11.78 61.91 61.91 0 0 0 7.35-16.51 128.17 128.17 0 0 0 4.73-34.21q0-19.6-4.9-30.92-5-11.66-12.33-15.37a21.37 21.37 0 0 0-10.31-2.28V72q0 15.63 2.07 47.05t2.08 47.28zm50.59 24.16q0-4.65 3.89-4.65a14.27 14.27 0 0 1 5.11 1.31 14.75 14.75 0 0 0 5.49 1.31q2.32 0 5-3a20.83 20.83 0 0 0 4.22-7.35 49.67 49.67 0 0 0 3.13-16.18 53.11 53.11 0 0 0-2.53-15.5 100.5 100.5 0 0 0-6.17-15.54q-3.63-7.26-7.35-14.53-8.79-17.32-8.7-31.59-.09-13.51 8.53-21.2a15.63 15.63 0 0 1 10.73-4.05 11.91 11.91 0 0 1 6.08 1.73 9.55 9.55 0 0 1 4.14 4.52l-3 3.72a11.76 11.76 0 0 1-6.76-1.69 8.43 8.43 0 0 0-5.57 3 18.13 18.13 0 0 0-4.31 12.29 54.67 54.67 0 0 0 1.86 14.23 64.08 64.08 0 0 0 4.65 12.42q2.79 5.49 6 11.91t6.08 12.33a68 68 0 0 1 6.5 29.57 42.81 42.81 0 0 1-5.66 21.46 22.93 22.93 0 0 1-7.43 8.07 18.56 18.56 0 0 1-10.56 3.17q-6.25 0-9.84-1.86t-3.53-3.9zm58.27-2.87l.84-61.75q0-40.72-4.48-61.75 2.7-3.88 6.67-3.89a24.09 24.09 0 0 1 11.7 2.87 24.59 24.59 0 0 1 8.57 7.6 38.67 38.67 0 0 1 6.84 22.55 48.34 48.34 0 0 1-5.49 23 38.49 38.49 0 0 1-16.13 16.09l1.35 53.89q0 7.18-5.74 7.18a3.35 3.35 0 0 1-3.13-1.82 8.09 8.09 0 0 1-1-3.97zm8.11-63.62q13.18-12.33 13.18-29.31v-.08q0-9.71-2.37-13.6-1.18-1.86-1.9-2.91a15.58 15.58 0 0 0-2.92-2.83q-2.62-2.11-8-6 0 9.12 1 27.37t1.01 27.36zm72.12 68.43q-5.32 0-5.32-4.48V165.4q-2.45-1.69-8.83-2.87a100.56 100.56 0 0 0-11.36-1.52 29.24 29.24 0 0 0-2.91 8.79q-1.14 5.75-2.37 11.57a30.18 30.18 0 0 1-3.25 9.21q-6.76 0-7.6-3.46 2.36-3.38 7.69-34.55t8.74-48.78a244.26 244.26 0 0 1 7.39-29.61q4-12 7.6-12a8.88 8.88 0 0 1 5.58 1.52q0 6.17 3.38 33.37t3.38 35.18q0 8 1.82 26.52t1.82 27.83q-.02 5.83-5.76 5.83zm-7.27-56.43q-1.52-15.33-2.75-29.23t-1.22-16.81a32 32 0 0 1 .08-3.34q-2.71 2.79-7.81 31t-5.45 35.73a47.64 47.64 0 0 0 12 1.94 32.15 32.15 0 0 0 6.88-.51q-.21-3.49-1.73-18.78zm43.07-27.87l-1.52 12.08v4.14q0 20.1.89 26.61t1.82 11.66a44.4 44.4 0 0 0 2.41 8.79 43.43 43.43 0 0 0 3.51 6.84q4.05 6.42 11.23 6.42 3 0 7.35-3.08t6.67-3.08q2.28 0 4.9 2.62 0 8.7-9.88 12.42a31 31 0 0 1-10.64 1.77A19.42 19.42 0 0 1 1531 193a21.61 21.61 0 0 1-6.76-6 36.19 36.19 0 0 1-4.73-9.42 88.81 88.81 0 0 1-3.21-11.4q-1-5.74-1.69-13.18-1-12.5-1.1-27.37l.17-20.7a86.62 86.62 0 0 1 1.18-16 30.21 30.21 0 0 1-.51-5.41q0-10.64 7.94-16.94t19.6-6.29a15.9 15.9 0 0 1 8.11 2.32q4 2.32 4 6.13a3.31 3.31 0 0 1-1.44 2.87q-1.44 1-4.86 1t-4.7-2.07v.08h-2.37v-.42q-10.05 0-13.68 6.25-3.38 5.75-3.38 19.77zm74.73 21.03l-4.31-.17a4.31 4.31 0 0 0-3.55 1.27v53.39q8.87-.51 9.63-.51 9.88 0 9.88 4.56v.59a7.86 7.86 0 0 1-4.05 3.63 15.92 15.92 0 0 1-5.07 1.44q-2.2.17-5.66.17h-5.41q-6.42 0-7.94-2.53a6.26 6.26 0 0 1-.68-3.12V87.35a48.51 48.51 0 0 0-1.18-8.79 48.53 48.53 0 0 1-1.18-8.87v-.59a33.57 33.57 0 0 1 4.31-6.08l12.84-1.52a10.38 10.38 0 0 1 5.28 1.56 4.65 4.65 0 0 1 2.66 4.1q0 5.15-7.86 5.15l-5-.17a14.71 14.71 0 0 0-1.86.08l1.35 28.55q0 3.46-.42 10.09t-.42 9.67q.93-.17 2.53-.59a23.5 23.5 0 0 1 5.53-.93 5.1 5.1 0 0 1 3.55 1.44 4.54 4.54 0 0 1 1.56 3.46 5.71 5.71 0 0 1-1.27 3.63 4 4 0 0 1-3.26 1.62z"/></svg>