<svg id="Layer_1" data-name="Layer 1" xmlns="http://www.w3.org/2000/svg" viewBox="0 0 36 119"><defs><style>.cls-1{fill:#d5d5d5}.cls-2{fill:none;stroke:#d5d5d5}.cls-2,.cls-5{stroke-linecap:round;stroke-miterlimit:10;stroke-width:2px}.cls-3{fill:#81e281}.cls-4{fill:#6cdd6c}.cls-5{fill:#fff;stroke:#fff}</style></defs><title>status-icon-01</title><path class="cls-1" d="M18 84a17 17 0 1 1-17 17 17 17 0 0 1 17-17m0-1a18 18 0 1 0 18 18 18 18 0 0 0-18-18z"/><path class="cls-2" d="M10.78 100.25l5.87 6.1 9.67-9.78"/><path class="cls-3" d="M18 35.5a17.5 17.5 0 1 1 12.38-5.13A17.52 17.52 0 0 1 18 35.5z"/><path class="cls-4" d="M18 0v1A17 17 0 1 1 6 6a17 17 0 0 1 12-5V0m0 0a18 18 0 0 0 0 36 18 18 0 0 0 0-36z"/><path class="cls-5" d="M12.71 23.35l10.58-10.7m.06 10.64l-10.7-10.58"/><path class="cls-1" d="M18 42.5a17 17 0 1 1-17 17 17 17 0 0 1 17-17m0-1a18 18 0 1 0 18 18 18 18 0 0 0-18-18z"/><path class="cls-2" d="M6.21 59.96h6.49l3.02-9.51 3.56 18.1 3.29-8.59h7.22"/></svg>