<svg id="Layer_1" data-name="Layer 1" xmlns="http://www.w3.org/2000/svg" viewBox="0 0 36 36"><defs><style>.cls-1{fill:#81e281;}.cls-2{fill:#6cdd6c;}.cls-3{fill:#fff;stroke:#fff;stroke-linecap:round;stroke-miterlimit:10;stroke-width:2px;}</style></defs><title>icon-expired</title><path class="cls-1" d="M18,35.5a17.5,17.5,0,1,1,12.38-5.13A17.52,17.52,0,0,1,18,35.5Z"/><path class="cls-2" d="M18,0V1h0A17,17,0,1,1,6,6,17,17,0,0,1,18,1V0m0,0h0a18,18,0,0,0,0,36h0A18,18,0,0,0,18,0Z"/><line class="cls-3" x1="12.71" y1="23.35" x2="23.29" y2="12.65"/><line class="cls-3" x1="23.35" y1="23.29" x2="12.65" y2="12.71"/></svg>