<svg id="Layer_1" data-name="Layer 1" xmlns="http://www.w3.org/2000/svg" viewBox="0 0 36 36"><defs><style>.cls-1{fill:#81e281;}.cls-2{fill:#6cdd6c;}.cls-3{fill:none;stroke:#fff;stroke-linecap:round;stroke-miterlimit:10;stroke-width:2px;}</style></defs><title>icon-pending</title><path class="cls-1" d="M18,35.5A17.5,17.5,0,1,1,35.5,18,17.52,17.52,0,0,1,18,35.5Z"/><path class="cls-2" d="M18,1A17,17,0,1,1,1,18,17,17,0,0,1,18,1m0-1A18,18,0,1,0,36,18,18,18,0,0,0,18,0Z"/><polyline class="cls-3" points="6.21 18.46 12.7 18.46 15.72 8.95 19.28 27.05 22.57 18.46 29.79 18.46"/></svg>