<svg id="Layer_1" data-name="Layer 1" xmlns="http://www.w3.org/2000/svg" viewBox="0 0 36 119"><defs><style>.cls-1{fill:#d5d5d5;}.cls-2{fill:none;stroke:#d5d5d5;}.cls-2,.cls-5{stroke-linecap:round;stroke-miterlimit:10;stroke-width:2px;}.cls-3{fill:#81e281;}.cls-4{fill:#6cdd6c;}.cls-5{fill:#fff;stroke:#fff;}</style></defs><title>status-icon-01</title><path class="cls-1" d="M18,84A17,17,0,1,1,1,101,17,17,0,0,1,18,84m0-1a18,18,0,1,0,18,18A18,18,0,0,0,18,83Z"/><polyline class="cls-2" points="10.78 100.25 16.65 106.35 26.32 96.57"/><path class="cls-3" d="M18,35.5a17.5,17.5,0,1,1,12.38-5.13A17.52,17.52,0,0,1,18,35.5Z"/><path class="cls-4" d="M18,0V1h0A17,17,0,1,1,6,6,17,17,0,0,1,18,1V0m0,0h0a18,18,0,0,0,0,36h0A18,18,0,0,0,18,0Z"/><line class="cls-5" x1="12.71" y1="23.35" x2="23.29" y2="12.65"/><line class="cls-5" x1="23.35" y1="23.29" x2="12.65" y2="12.71"/><path class="cls-1" d="M18,42.5a17,17,0,1,1-17,17,17,17,0,0,1,17-17m0-1a18,18,0,1,0,18,18,18,18,0,0,0-18-18Z"/><polyline class="cls-2" points="6.21 59.96 12.7 59.96 15.72 50.45 19.28 68.55 22.57 59.96 29.79 59.96"/></svg>