<svg id="Layer_1" data-name="Layer 1" xmlns="http://www.w3.org/2000/svg" viewBox="0 0 115.84 115.84"><defs><style>.cls-1{fill:#ef0077;}.cls-2{fill:#fff;}</style></defs><title>indiegogo-icon</title><circle class="cls-1" cx="58.38" cy="57.7" r="57"/><path class="cls-2" d="M79.44,33.51C61.68,33.51,58.52,45.15,58.52,58s3.16,24.38,20.91,24.38S100.28,70.68,100.28,58,97.19,33.51,79.44,33.51Zm0,37.56c-7,0-8-4.82-8-12.67s1-12.61,8-12.61,7.91,4.82,7.91,12.61S86.38,71.07,79.44,71.07Z"/><path class="cls-2" d="M34.1,63.36h8.22v.83c0,5.27.16,7.59-6.11,7.59-5.85,0-7.85-2.7-7.85-13.44,0-11.19,3.34-12.54,8.36-12.54A16.7,16.7,0,0,1,45.28,48L52.1,37.36a27.94,27.94,0,0,0-14.8-3.86c-16.47,0-21.74,7.91-21.74,24.44,0,14.41,3.86,24.38,19.49,24.38a38.93,38.93,0,0,0,7.2-.58H54V53H35.51Z"/></svg>