<svg id="Layer_1" data-name="Layer 1" xmlns="http://www.w3.org/2000/svg" viewBox="0 0 115.84 115.84"><defs><style>.cls-1{fill:#86c638;}.cls-2{fill:#fff;}</style></defs><title>kickstarter-icon</title><circle class="cls-1" cx="57.92" cy="57.92" r="57"/><path class="cls-2" d="M52.5,48.26,63.16,32.8A9.15,9.15,0,0,1,71,28.44a9.38,9.38,0,0,1,6.76,2.77,8.92,8.92,0,0,1,2.86,6.63,8.63,8.63,0,0,1-1.51,5l-9.62,14L81.22,71.77A8.14,8.14,0,0,1,83,77a9.36,9.36,0,0,1-2.77,6.78,9.05,9.05,0,0,1-6.72,2.83,8,8,0,0,1-6.59-2.81l-14.4-18v9.91A12.44,12.44,0,0,1,51,82.31a8.67,8.67,0,0,1-7.81,4.28A8.78,8.78,0,0,1,36,83.45a11.68,11.68,0,0,1-2.39-7.68V39A11.32,11.32,0,0,1,36,31.54a8.65,8.65,0,0,1,7.05-3.11,9.29,9.29,0,0,1,7.14,3.11,7.91,7.91,0,0,1,2,3.49,21.49,21.49,0,0,1,.25,4.07Z"/></svg>