<svg id="Layer_1" data-name="Layer 1" xmlns="http://www.w3.org/2000/svg" viewBox="0 0 115.84 115.84"><defs><style>.cls-1{fill:#fdd13a;}.cls-2{font-size:66.35px;font-family:Montserrat-Bold, Montserrat;font-weight:700;}.cls-2,.cls-3{fill:#fff;}</style></defs><title>krowdspace-icon</title><circle class="cls-1" cx="57.92" cy="57.92" r="57"/><text class="cls-2" transform="translate(16.53 80.29)">K</text><path class="cls-3" d="M96.39,75.07a20,20,0,0,1-14.17,5.71,18.79,18.79,0,0,1-13.44-5q-5.31-5-5.31-13.44t5.41-13.4a18.24,18.24,0,0,1,12.77-5A18.47,18.47,0,0,1,94.17,48.4q5.14,4.45,5.14,12.21v5.31h-26a7.09,7.09,0,0,0,3.05,4.78,9.76,9.76,0,0,0,5.84,1.86A11.45,11.45,0,0,0,90.82,69ZM86.83,53.91a7.54,7.54,0,0,0-5-1.73A9,9,0,0,0,76.42,54a6.85,6.85,0,0,0-2.85,4.84H89.22A7.07,7.07,0,0,0,86.83,53.91Z"/><circle class="cls-3" cx="82.58" cy="38.11" r="2.66"/></svg>