<svg id="Layer_1" data-name="Layer 1" xmlns="http://www.w3.org/2000/svg" viewBox="0 0 1903 241"><defs><style>.cls-1{fill:#fff;}</style></defs><title>indiegogo-full</title><rect class="cls-1" x="257.38" y="23.74" width="51.72" height="193.52"/><polygon class="cls-1" points="441.3 113.33 389.06 23.74 334.73 23.74 334.73 217.26 383.83 217.26 383.83 116.71 384.62 116.73 443.9 217.26 491.42 217.26 491.42 23.74 442.07 23.74 442.07 113.33 441.3 113.33"/><path class="cls-1" d="M517.24,23.74V217.26h65c61.37,0,90.36-15.41,90.36-96.89,0-79.91-29.5-96.63-91.13-96.63Zm102.9,96.89c0,48.85-13.84,52-33.17,52h-18V70.75h15.93C606.81,70.75,620.13,72.06,620.13,120.63Z"/><rect class="cls-1" x="691.14" y="23.74" width="51.71" height="193.52"/><path class="cls-1" d="M1170.07,21.39c-72.07,0-84.87,47.26-84.87,99.24,0,51.71,12.8,99,84.87,99,71.82,0,84.62-47.27,84.62-99C1254.7,68.65,1242.15,21.39,1170.07,21.39Zm0,152.51c-28.46,0-32.38-19.59-32.38-51.44,0-31.6,3.92-51.19,32.38-51.19,28.21,0,32.13,19.59,32.13,51.19C1202.2,154.31,1198.29,173.9,1170.07,173.9Z"/><path class="cls-1" d="M1532.55,21.39c-72.09,0-84.89,47.26-84.89,99.24,0,51.71,12.81,99,84.89,99,71.81,0,84.6-47.27,84.6-99C1617.15,68.65,1604.62,21.39,1532.55,21.39Zm0,152.51c-28.47,0-32.4-19.59-32.4-51.44,0-31.6,3.93-51.19,32.4-51.19,28.18,0,32.11,19.59,32.11,51.19C1564.66,154.31,1560.73,173.9,1532.55,173.9Z"/><path class="cls-1" d="M1633.83,186.64c-9.43,0-11.75,6.37-11.75,14.72s2.31,14.64,11.75,14.64,11.79-6.34,11.79-14.64S1643.22,186.64,1633.83,186.64Zm0,27.28c-7.72,0-9.5-5.46-9.5-12.56s1.77-12.6,9.5-12.6,9.54,5.45,9.54,12.6S1641.56,213.92,1633.83,213.92Z"/><path class="cls-1" d="M1640.32,198c0-3.51-1.16-5.53-5.68-5.53H1628V210h3.59v-6.18h2.28l2.71,6.18h3.67l-2.94-6.53C1639.62,202.71,1640.32,200.78,1640.32,198Zm-5.83,2.9h-2.95v-5.29h2.95c1.74,0,2.32.73,2.32,2.66S1636.23,200.94,1634.49,200.94Z"/><path class="cls-1" d="M986,142.58h33.36V146c0,21.38.67,30.82-24.8,30.82-23.77,0-31.87-11-31.87-54.58,0-45.44,13.58-50.93,34-50.93a67.81,67.81,0,0,1,34.74,8.89l27.68-43.1c-14.63-9.4-36-15.67-60.07-15.67-66.85,0-88.27,32.13-88.27,99.24,0,58.5,15.67,99,79.13,99a158,158,0,0,0,29.22-2.35h47.56V100.52H991.75Z"/><path class="cls-1" d="M1348.5,142.58h33.36V146c0,21.38.67,30.82-24.8,30.82-23.77,0-31.87-11-31.87-54.58,0-45.44,13.58-50.93,34-50.93a67.81,67.81,0,0,1,34.74,8.89l27.68-43.1c-14.63-9.4-36-15.67-60.07-15.67-66.85,0-88.27,32.13-88.27,99.24,0,58.5,15.67,99,79.13,99a158,158,0,0,0,29.22-2.35h47.56V100.52h-74.92Z"/><polygon class="cls-1" points="897.15 71.01 897.15 23.74 768.66 23.74 768.66 217.26 897.15 217.26 897.15 171.3 819.33 171.3 819.33 142.3 870.44 142.3 876.68 96.35 819.33 96.35 819.33 71.01 897.15 71.01"/></svg>