<svg id="Layer_1" data-name="Layer 1" xmlns="http://www.w3.org/2000/svg" viewBox="0 0 500 500"><defs><style>.cls-1{fill:#fff;}</style></defs><title>kickstarter</title><path class="cls-1" d="M221,182.19l77.51-112.3q22-31.74,56.76-31.74,28.38,0,49.13,20.14t20.75,48.22q0,20.76-11,36.62L344.3,244.75l85.45,108.34q12.82,16.18,12.82,37.84,0,28.69-20.14,49.29t-48.83,20.6q-31.44,0-47.91-20.45L221,309.76v72q0,30.83-10.68,47.91-19.53,31.13-56.76,31.13-33.87,0-52.49-22.89-17.4-21.06-17.39-55.85v-267q0-33,17.7-54.32Q120,38.15,152.65,38.15q31.13,0,51.88,22.58,11.59,12.52,14.65,25.33Q221,94,221,115.67Z"/></svg>