<svg id="Layer_1" data-name="Layer 1" xmlns="http://www.w3.org/2000/svg" viewBox="0 0 500 500"><defs><style>.cls-1{fill:#fff;}</style></defs><title>krowdspace-logo-white</title><path class="cls-1" d="M246.79,66.11H39.9a20.82,20.82,0,0,1,0-41.64H246.79a20.82,20.82,0,0,1,0,41.64Z"/><path class="cls-1" d="M246.79,71.94H39.9a26.65,26.65,0,1,1,0-53.3H246.79a26.65,26.65,0,1,1,0,53.3ZM39.9,30.3a15,15,0,1,0,0,30H246.79a15,15,0,1,0,0-30Z"/><path class="cls-1" d="M246.79,270.24H39.9a20.82,20.82,0,0,1,0-41.64H246.79c52.34,0,101.92-22.45,139.59-63.23,32.63-35.31,52.9-81.33,52.9-120.09a20.82,20.82,0,0,1,41.64,0c0,49.55-23.91,105-64,148.34C371.32,243,310.88,270.24,246.79,270.24Z"/><path class="cls-1" d="M246.79,276.07H39.9a26.65,26.65,0,0,1,0-53.3H246.79c50.7,0,98.75-21.79,135.31-61.35,31.68-34.28,51.35-78.78,51.35-116.13a26.65,26.65,0,1,1,53.3,0c0,51-24.49,107.91-65.51,152.3C374.48,248.2,312.53,276.07,246.79,276.07ZM39.9,234.43a15,15,0,0,0,0,30H246.79c62.45,0,121.36-26.54,165.89-74.73,39.08-42.29,62.41-96.27,62.41-144.39a15,15,0,1,0-30,0c0,40.17-20.86,87.7-54.45,124-38.79,42-89.89,65.1-143.87,65.1Z"/><path class="cls-1" d="M186.7,168.19l-146.8,0a20.82,20.82,0,0,1,0-41.64h0c69.34,0,201.13,0,206.54,0,42.88-1,88.73-33.88,88.73-81.25a20.82,20.82,0,0,1,41.64,0c0,30.45-13.36,61.12-36.65,84.16-24.44,24.17-57.43,37.92-92.9,38.72C246.4,168.19,220.75,168.19,186.7,168.19Z"/><path class="cls-1" d="M186.7,174,39.89,174a26.65,26.65,0,0,1,0-53.3c69.34,0,201.1,0,206.51,0,40-1,82.94-31.49,82.94-75.42a26.65,26.65,0,1,1,53.3,0c0,32-14,64.18-38.38,88.3-25.51,25.22-59.91,39.57-96.87,40.4C247.05,174,246.17,174,186.7,174ZM39.9,132.37a15,15,0,0,0,0,30l146.8,0c48.66,0,59.73,0,60.45,0,34-.76,65.54-13.92,88.91-37,22.19-22,34.92-51.11,34.92-80a15,15,0,1,0-30,0c0,50.74-48.83,86-94.43,87.08C241,132.41,109.25,132.39,39.9,132.37Z"/><path class="cls-1" d="M246.79,475.53H39.9a20.82,20.82,0,0,1,0-41.64H246.79a20.82,20.82,0,0,1,0,41.64Z"/><path class="cls-1" d="M246.79,481.36H39.9a26.65,26.65,0,1,1,0-53.3H246.79a26.65,26.65,0,1,1,0,53.3ZM39.9,439.72a15,15,0,0,0,0,30H246.79a15,15,0,1,0,0-30Z"/><path class="cls-1" d="M460.1,475.53a20.82,20.82,0,0,1-20.82-20.82c0-38.76-20.27-84.77-52.9-120.09-37.67-40.77-87.25-63.23-139.59-63.23H39.9a20.82,20.82,0,0,1,0-41.64H246.79c64.09,0,124.53,27.2,170.17,76.6,40,43.34,64,98.8,64,148.34A20.82,20.82,0,0,1,460.1,475.53Z"/><path class="cls-1" d="M460.1,481.36a26.68,26.68,0,0,1-26.65-26.65c0-37.35-19.68-81.85-51.35-116.13-36.56-39.56-84.61-61.35-135.31-61.35H39.9a26.65,26.65,0,0,1,0-53.3H246.79c65.74,0,127.69,27.87,174.45,78.48,41,44.39,65.51,101.32,65.51,152.3A26.68,26.68,0,0,1,460.1,481.36ZM39.9,235.59a15,15,0,0,0,0,30H246.79c54,0,105.08,23.12,143.87,65.1,33.59,36.35,54.45,83.88,54.45,124a15,15,0,1,0,30,0c0-48.12-23.33-102.09-62.41-144.39-44.53-48.19-103.44-74.73-165.89-74.73Z"/><path class="cls-1" d="M356,475.53a20.82,20.82,0,0,1-20.82-20.82c0-38.43-36.3-81.25-88.39-81.25H39.9a20.82,20.82,0,0,1,0-41.64H246.79a131.77,131.77,0,0,1,92,37.37c24.14,23.36,38,54.52,38,85.51A20.82,20.82,0,0,1,356,475.53Z"/><path class="cls-1" d="M356,481.36a26.68,26.68,0,0,1-26.65-26.65c0-35.67-33.91-75.42-82.56-75.42H39.9a26.65,26.65,0,1,1,0-53.3H246.79a137.57,137.57,0,0,1,96.1,39c25.27,24.45,39.76,57.14,39.76,89.7A26.68,26.68,0,0,1,356,481.36ZM39.9,337.66a15,15,0,0,0,0,30H246.79a95.53,95.53,0,0,1,67.84,27.91C331.39,412.22,341,433.79,341,454.71a15,15,0,1,0,30,0c0-29.42-13.2-59.06-36.2-81.32a126,126,0,0,0-88-35.73Z"/></svg>