<svg id="Layer_1" data-name="Layer 1" xmlns="http://www.w3.org/2000/svg" viewBox="0 0 200 200"><defs><style>.cls-1{fill:none;stroke:#31a2db;stroke-miterlimit:10;stroke-width:10px;}.cls-2{fill:#31a2db;}</style></defs><title>Krowdspace-Press-Set</title><rect class="cls-1" x="15.76" y="15.76" width="168.48" height="168.48"/><path class="cls-2" d="M39.08,63.07H52.22v38l35.63-38h16.7L73.27,97.14,105,140.9H89.41L63.58,106.83,52.22,119.07V140.9H39.08Z"/><path class="cls-2" d="M167,116.73H120.6a13.49,13.49,0,0,0,5.9,10.41,20.71,20.71,0,0,0,12.47,4q11.13,0,16.92-7l7.13,7.79q-9.58,9.91-24.94,9.91a29.68,29.68,0,0,1-21.21-8.29q-8.74-8.29-8.74-22.27T117,89a29.89,29.89,0,0,1,21-8.24,30.4,30.4,0,0,1,20.54,7.29q8.46,7.29,8.46,20.1Zm-46.43-9.8h34q0-7.46-4.68-11.47a17.09,17.09,0,0,0-11.52-4,19.73,19.73,0,0,0-12.3,4.18A13.48,13.48,0,0,0,120.6,106.94Z"/><circle class="cls-2" cx="137.97" cy="71.19" r="3.71"/></svg>