<svg id="Layer_1" data-name="Layer 1" xmlns="http://www.w3.org/2000/svg" viewBox="0 0 1000 112.43"><defs><style>.cls-1{fill:#fff;}.cls-2{fill:none;stroke:#fdd13a;stroke-miterlimit:10;stroke-width:6px;}.cls-3{fill:#fdd13a;}.cls-4{fill:#3f434f;}</style></defs><title>Krowdspace-Press-Set</title><rect class="cls-1" x="177.41" y="9.64" width="93.15" height="93.15"/><rect class="cls-2" x="177.41" y="9.64" width="93.15" height="93.15"/><path class="cls-3" d="M190.3,35.8h7.26v21l19.7-21h9.23L209.2,54.63l17.54,24.19h-8.62L203.85,60l-6.28,6.77V78.82H190.3Z"/><path class="cls-3" d="M261,65.47H235.37a7.46,7.46,0,0,0,3.26,5.76,11.45,11.45,0,0,0,6.89,2.19q6.15,0,9.36-3.88l3.94,4.31q-5.29,5.48-13.79,5.48a16.41,16.41,0,0,1-11.73-4.59q-4.83-4.58-4.83-12.31t4.92-12.28A16.53,16.53,0,0,1,245,45.58a16.81,16.81,0,0,1,11.36,4q4.68,4,4.68,11.11ZM235.37,60h18.78a7.89,7.89,0,0,0-2.59-6.34,9.45,9.45,0,0,0-6.37-2.22,10.9,10.9,0,0,0-6.8,2.31A7.45,7.45,0,0,0,235.37,60Z"/><circle class="cls-3" cx="244.98" cy="40.28" r="2.05"/><path class="cls-4" d="M305.22,38.63H313V52.94l13.17-14.31h9.63L321.93,54q1.8,2.49,6.63,9.3t7.23,10.15h-9.08L316.5,59.73,313,63.62v9.88h-7.78Z"/><path class="cls-4" d="M368.91,50.2q0,8.38-6.63,10.82l8.83,12.47h-9.58L353.8,62.37h-5.39V73.49h-7.78V38.63h13.22q8.13,0,11.6,2.74T368.91,50.2Zm-9.38,4.14A5.27,5.27,0,0,0,361,50.23q0-2.82-1.5-3.87t-5.24-1h-5.83V55.64h5.69Q358.09,55.64,359.54,54.34Z"/><path class="cls-4" d="M405.87,68.68a19,19,0,0,1-26,0,17.22,17.22,0,0,1-5.29-12.84A17.22,17.22,0,0,1,379.84,43a19,19,0,0,1,26,0,17.22,17.22,0,0,1,5.29,12.84A17.22,17.22,0,0,1,405.87,68.68Zm-2.64-12.82a11.41,11.41,0,0,0-3-8,9.87,9.87,0,0,0-14.71,0,12,12,0,0,0,0,15.88,9.92,9.92,0,0,0,14.71,0A11.32,11.32,0,0,0,403.23,55.86Z"/><path class="cls-4" d="M428.06,58.68l6.18-20h8.13l6.13,20,6.93-20h8.43L451.71,73.49h-5.79l-7.63-24.24-7.58,24.24h-5.79L412.75,38.63h8.43Z"/><path class="cls-4" d="M494.65,43.19q5,4.56,5,12.69t-4.86,12.87q-4.86,4.74-14.84,4.74H468V38.63h12.32Q489.66,38.63,494.65,43.19Zm-5.71,20.72q2.87-2.69,2.87-7.83t-2.87-7.91q-2.87-2.77-8.8-2.77h-4.34v21.2h4.94Q486.07,66.61,488.94,63.92Z"/><path class="cls-4" d="M514.27,45.59A3,3,0,0,0,513.15,48a2.76,2.76,0,0,0,1.37,2.42,25.05,25.05,0,0,0,6.33,2.12,17.84,17.84,0,0,1,7.71,3.67q2.74,2.44,2.74,7.13A9.42,9.42,0,0,1,527.79,71a14,14,0,0,1-9.25,2.92,21.41,21.41,0,0,1-14.91-6.13l4.64-5.69Q513.9,67,518.69,67a5.47,5.47,0,0,0,3.37-.92,3,3,0,0,0,1.22-2.49A2.91,2.91,0,0,0,522,61.1a16.94,16.94,0,0,0-5.14-1.87q-6.09-1.45-8.9-3.77t-2.82-7.28a9,9,0,0,1,3.57-7.66,14.35,14.35,0,0,1,8.9-2.69,21.42,21.42,0,0,1,7,1.2,18.71,18.71,0,0,1,6.08,3.39l-3.94,5.69a15.35,15.35,0,0,0-9.38-3.44A4.69,4.69,0,0,0,514.27,45.59Z"/><path class="cls-4" d="M562,41.75q3.67,3.12,3.67,9.58t-3.77,9.45q-3.77,3-11.5,3h-4.64v9.73h-7.78V38.63h12.32Q558.29,38.63,562,41.75Zm-5.71,13.72a6.71,6.71,0,0,0,1.4-4.59q0-3-1.82-4.29t-5.66-1.27h-4.44V57H551Q554.85,57,556.24,55.46Z"/><path class="cls-4" d="M594.5,73.49,591.25,66H576.64l-3.24,7.53h-8.28l15.06-34.86h7.53l15.06,34.86ZM584,49l-4.39,10.12h8.73Z"/><path class="cls-4" d="M622.82,66.61a11.48,11.48,0,0,0,9.38-4.54l5,5.14q-5.94,6.68-14,6.68a18.21,18.21,0,0,1-13.27-5.09A17.19,17.19,0,0,1,604.72,56,17.35,17.35,0,0,1,610,43a17.89,17.89,0,0,1,13-5.19,18.42,18.42,0,0,1,14.36,6.53l-4.84,5.49a11.34,11.34,0,0,0-9.18-4.59,10.69,10.69,0,0,0-7.51,2.87,10,10,0,0,0-3.12,7.73,10.55,10.55,0,0,0,2.94,7.81A9.71,9.71,0,0,0,622.82,66.61Z"/><path class="cls-4" d="M676.8,59.26H649.46a7.94,7.94,0,0,0,3.48,6.13,12.19,12.19,0,0,0,7.34,2.33q6.56,0,10-4.13l4.2,4.59Q668.8,74,659.75,74a17.48,17.48,0,0,1-12.49-4.89q-5.15-4.88-5.15-13.12t5.25-13.08a17.61,17.61,0,0,1,12.36-4.85,17.9,17.9,0,0,1,12.1,4.3q5,4.3,5,11.84Zm-27.34-5.77h20a8.41,8.41,0,0,0-2.75-6.75,10.07,10.07,0,0,0-6.79-2.36,11.62,11.62,0,0,0-7.25,2.46A7.94,7.94,0,0,0,649.46,53.49Z"/><path class="cls-4" d="M685.3,72.57a4.79,4.79,0,0,1-1.41-3.48,4.81,4.81,0,0,1,4.85-4.85,4.8,4.8,0,0,1,3.48,1.41,4.64,4.64,0,0,1,1.44,3.44A4.92,4.92,0,0,1,688.74,74,4.63,4.63,0,0,1,685.3,72.57Z"/><path class="cls-4" d="M718.22,66.61a11.48,11.48,0,0,0,9.38-4.54l5,5.14q-5.94,6.68-14,6.68a18.21,18.21,0,0,1-13.27-5.09A17.19,17.19,0,0,1,700.11,56,17.35,17.35,0,0,1,705.43,43a17.89,17.89,0,0,1,13-5.19,18.42,18.42,0,0,1,14.36,6.53l-4.84,5.49a11.34,11.34,0,0,0-9.18-4.59,10.69,10.69,0,0,0-7.51,2.87,10,10,0,0,0-3.12,7.73,10.55,10.55,0,0,0,2.94,7.81A9.71,9.71,0,0,0,718.22,66.61Z"/><path class="cls-4" d="M767.29,68.68a19,19,0,0,1-26,0A17.22,17.22,0,0,1,736,55.84,17.22,17.22,0,0,1,741.26,43a19,19,0,0,1,26,0,17.22,17.22,0,0,1,5.29,12.84A17.22,17.22,0,0,1,767.29,68.68Zm-2.64-12.82a11.41,11.41,0,0,0-3-8,9.87,9.87,0,0,0-14.71,0,12,12,0,0,0,0,15.88,9.92,9.92,0,0,0,14.71,0A11.32,11.32,0,0,0,764.65,55.86Z"/><path class="cls-4" d="M810.39,51.55,801,70.6h-4.64l-9.38-19.05V73.49h-7.78V38.63h10.52l9,19.15,9-19.15h10.47V73.49h-7.78Z"/></svg>