<svg id="Layer_1" data-name="Layer 1" xmlns="http://www.w3.org/2000/svg" viewBox="0 0 1000 120"><defs><style>.cls-1{fill:#3f434f;}.cls-2{fill:#fff;}.cls-3{fill:none;stroke:#fdd13a;stroke-miterlimit:10;stroke-width:6px;}.cls-4{fill:#fdd13a;}</style></defs><title>Krowdspace-Press-Set</title><path class="cls-1" d="M575.63,46.62h7.78V60.93l13.17-14.31h9.63L592.34,62q1.8,2.49,6.63,9.3t7.23,10.15h-9.08L586.9,67.71l-3.49,3.89v9.88h-7.78Z"/><path class="cls-1" d="M639.32,58.19q0,8.38-6.63,10.82l8.83,12.47h-9.58l-7.73-11.12h-5.39V81.48H611V46.62h13.22q8.13,0,11.6,2.74T639.32,58.19Zm-9.38,4.14a5.27,5.27,0,0,0,1.45-4.11q0-2.82-1.5-3.87t-5.24-1h-5.83V63.63h5.69Q628.5,63.63,629.94,62.33Z"/><path class="cls-1" d="M676.28,76.67a19,19,0,0,1-26,0A17.22,17.22,0,0,1,645,63.82,17.22,17.22,0,0,1,650.24,51a19,19,0,0,1,26,0,17.22,17.22,0,0,1,5.29,12.84A17.22,17.22,0,0,1,676.28,76.67Zm-2.64-12.82a11.41,11.41,0,0,0-3-8,9.87,9.87,0,0,0-14.71,0,12,12,0,0,0,0,15.88,9.92,9.92,0,0,0,14.71,0A11.32,11.32,0,0,0,673.63,63.85Z"/><path class="cls-1" d="M698.47,66.67l6.18-20h8.13l6.13,20,6.93-20h8.43L722.11,81.48h-5.79L708.7,57.24l-7.58,24.24h-5.79L683.16,46.62h8.43Z"/><path class="cls-1" d="M765.06,51.18q5,4.56,5,12.69t-4.86,12.87q-4.86,4.74-14.84,4.74H738.42V46.62h12.32Q760.07,46.62,765.06,51.18ZM759.34,71.9q2.87-2.69,2.87-7.83t-2.87-7.91q-2.87-2.77-8.8-2.77H746.2V74.6h4.94Q756.48,74.6,759.34,71.9Z"/><path class="cls-1" d="M784.68,53.58A3,3,0,0,0,783.56,56a2.76,2.76,0,0,0,1.37,2.42,25.06,25.06,0,0,0,6.33,2.12A17.84,17.84,0,0,1,799,64.22q2.74,2.44,2.74,7.13A9.41,9.41,0,0,1,798.2,79a14,14,0,0,1-9.25,2.92A21.41,21.41,0,0,1,774,75.74l4.64-5.69Q784.31,75,789.09,75a5.47,5.47,0,0,0,3.37-.92,3,3,0,0,0,1.22-2.49,2.91,2.91,0,0,0-1.3-2.49,16.94,16.94,0,0,0-5.14-1.87q-6.09-1.45-8.9-3.77t-2.82-7.28a9,9,0,0,1,3.57-7.66,14.35,14.35,0,0,1,8.9-2.69,21.42,21.42,0,0,1,7,1.2,18.71,18.71,0,0,1,6.08,3.39l-3.94,5.69a15.35,15.35,0,0,0-9.38-3.44A4.69,4.69,0,0,0,784.68,53.58Z"/><path class="cls-1" d="M832.36,49.73Q836,52.85,836,59.31t-3.77,9.45q-3.77,3-11.5,3h-4.64v9.73h-7.78V46.62h12.32Q828.69,46.62,832.36,49.73Zm-5.71,13.72a6.71,6.71,0,0,0,1.4-4.59q0-3-1.82-4.29t-5.66-1.27h-4.44V65h5.24Q825.25,65,826.65,63.45Z"/><path class="cls-1" d="M864.9,81.48l-3.24-7.53H847l-3.24,7.53h-8.28l15.06-34.86h7.53l15.06,34.86ZM854.38,57,850,67.12h8.73Z"/><path class="cls-1" d="M893.23,74.6a11.48,11.48,0,0,0,9.38-4.54l5,5.14q-5.94,6.68-14,6.68a18.21,18.21,0,0,1-13.27-5.09,17.19,17.19,0,0,1-5.21-12.84A17.35,17.35,0,0,1,880.44,51a17.89,17.89,0,0,1,13-5.19,18.42,18.42,0,0,1,14.36,6.53L903,57.84a11.34,11.34,0,0,0-9.18-4.59,10.69,10.69,0,0,0-7.51,2.87,10,10,0,0,0-3.12,7.73,10.55,10.55,0,0,0,2.94,7.81A9.71,9.71,0,0,0,893.23,74.6Z"/><path class="cls-1" d="M947.21,67.25H919.87a7.94,7.94,0,0,0,3.48,6.13,12.19,12.19,0,0,0,7.34,2.33q6.56,0,10-4.13l4.2,4.59Q939.21,82,930.16,82a17.48,17.48,0,0,1-12.49-4.89q-5.15-4.88-5.15-13.12t5.25-13.08a17.61,17.61,0,0,1,12.36-4.85,17.9,17.9,0,0,1,12.1,4.3q5,4.3,5,11.84Zm-27.34-5.77h20a8.41,8.41,0,0,0-2.75-6.75,10.07,10.07,0,0,0-6.79-2.36,11.62,11.62,0,0,0-7.25,2.46A7.94,7.94,0,0,0,919.87,61.48Z"/><path class="cls-1" d="M76.91,46.64v6.83H60.75V61H76.11v6.83H60.75V81.5H53V46.64Z"/><path class="cls-1" d="M108.63,46.64v6.93H91.27v7.18h15.61v6.63H91.27v7.23h17.9V81.5H83.49V46.64Z"/><path class="cls-1" d="M140.95,81.5,137.71,74H123.09l-3.24,7.53h-8.28l15.06-34.86h7.53L149.23,81.5ZM130.42,57,126,67.14h8.73Z"/><path class="cls-1" d="M165.49,53.37V81.5H157.7V53.37h-9.87V46.64h27.53v6.73Z"/><path class="cls-1" d="M190.27,72.5a6.37,6.37,0,0,0,5.24,2.42,6.3,6.3,0,0,0,5.21-2.42,10.36,10.36,0,0,0,1.92-6.61V46.64h7.78v19.5q0,7.58-4.19,11.65a16.17,16.17,0,0,1-21.47,0q-4.22-4.09-4.21-11.62V46.64h7.78V65.89A10.26,10.26,0,0,0,190.27,72.5Z"/><path class="cls-1" d="M246.78,58.21q0,8.38-6.63,10.82L249,81.5H239.4l-7.73-11.12h-5.39V81.5H218.5V46.64h13.22q8.13,0,11.6,2.74T246.78,58.21Zm-9.38,4.14a5.27,5.27,0,0,0,1.45-4.11q0-2.82-1.5-3.87t-5.24-1h-5.83V63.65H232Q236,63.65,237.4,62.35Z"/><path class="cls-1" d="M279.9,46.64v6.93H262.54v7.18h15.61v6.63H262.54v7.23h17.9V81.5H254.76V46.64Z"/><path class="cls-1" d="M314,51.2q5,4.56,5,12.69t-4.86,12.87q-4.86,4.74-14.84,4.74H287.38V46.64H299.7Q309,46.64,314,51.2ZM308.3,71.93q2.87-2.69,2.87-7.83t-2.87-7.91q-2.87-2.77-8.8-2.77h-4.34v21.2h4.94Q305.43,74.62,308.3,71.93Z"/><path class="cls-1" d="M368.22,76.69a19,19,0,0,1-26,0,17.22,17.22,0,0,1-5.29-12.84A17.22,17.22,0,0,1,342.19,51a19,19,0,0,1,26,0,17.22,17.22,0,0,1,5.29,12.84A17.22,17.22,0,0,1,368.22,76.69Zm-2.64-12.82a11.41,11.41,0,0,0-3-8,9.87,9.87,0,0,0-14.71,0,12,12,0,0,0,0,15.88,9.92,9.92,0,0,0,14.71,0A11.32,11.32,0,0,0,365.58,63.87Z"/><path class="cls-1" d="M404.48,46.64h7.78V81.5h-7.78L387.87,59.66V81.5h-7.78V46.64h7.28l17.11,22.44Z"/><rect class="cls-2" x="447.41" y="13.43" width="93.15" height="93.15"/><rect class="cls-3" x="447.41" y="13.43" width="93.15" height="93.15"/><path class="cls-4" d="M460.3,39.58h7.26v21l19.7-21h9.23L479.2,58.42l17.54,24.19h-8.62L473.85,63.77l-6.28,6.77V82.61H460.3Z"/><path class="cls-4" d="M531,69.25H505.37A7.46,7.46,0,0,0,508.63,75a11.45,11.45,0,0,0,6.89,2.19q6.15,0,9.36-3.88l3.94,4.31Q523.53,83.1,515,83.1a16.41,16.41,0,0,1-11.73-4.59q-4.83-4.58-4.83-12.31t4.92-12.28A16.53,16.53,0,0,1,515,49.37a16.81,16.81,0,0,1,11.36,4q4.68,4,4.68,11.11Zm-25.67-5.42h18.78a7.89,7.89,0,0,0-2.59-6.34,9.45,9.45,0,0,0-6.37-2.22,10.9,10.9,0,0,0-6.8,2.31A7.45,7.45,0,0,0,505.37,63.83Z"/><circle class="cls-4" cx="514.98" cy="44.07" r="2.05"/></svg>