<svg id="Layer_1" data-name="Layer 1" xmlns="http://www.w3.org/2000/svg" viewBox="0 0 1931 272"><defs><style>.cls-1{fill:#81e281;}.cls-2{fill:#fff;}.cls-3{fill:#333;}</style></defs><title>5</title><circle class="cls-1" cx="180.75" cy="136" r="94.25"/><path class="cls-2" d="M180.05,95.89H134.92a4.54,4.54,0,1,1,0-9.08h45.13a4.54,4.54,0,1,1,0,9.08Z"/><path class="cls-2" d="M180.05,97.16H134.92a5.81,5.81,0,1,1,0-11.62h45.13a5.81,5.81,0,1,1,0,11.62Zm-45.13-9.08a3.27,3.27,0,1,0,0,6.54h45.13a3.27,3.27,0,1,0,0-6.54Z"/><path class="cls-2" d="M180.05,140.41H134.92a4.54,4.54,0,1,1,0-9.08h45.13c11.42,0,22.23-4.9,30.45-13.79C217.61,109.84,222,99.8,222,91.35a4.54,4.54,0,0,1,9.08,0c0,10.81-5.21,22.9-14,32.36C207.21,134.48,194,140.41,180.05,140.41Z"/><path class="cls-2" d="M180.05,141.69H134.92a5.81,5.81,0,0,1,0-11.62h45.13c11.06,0,21.54-4.75,29.51-13.38,6.91-7.48,11.2-17.18,11.2-25.33a5.81,5.81,0,1,1,11.62,0c0,11.12-5.34,23.54-14.29,33.22C207.9,135.61,194.39,141.69,180.05,141.69Zm-45.13-9.08a3.27,3.27,0,0,0,0,6.54h45.13c13.62,0,26.47-5.79,36.18-16.3,8.52-9.22,13.61-21,13.61-31.49a3.27,3.27,0,1,0-6.54,0c0,8.76-4.55,19.13-11.88,27.06-8.46,9.16-19.61,14.2-31.38,14.2Z"/><path class="cls-2" d="M166.94,118.16h-32a4.54,4.54,0,0,1,0-9.08H180c9.35-.22,19.35-7.39,19.35-17.72a4.54,4.54,0,0,1,9.08,0,26.18,26.18,0,0,1-8,18.36,29.58,29.58,0,0,1-20.26,8.45Z"/><path class="cls-2" d="M166.94,119.43h-32a5.81,5.81,0,0,1,0-11.62h45c8.73-.21,18.09-6.87,18.09-16.45a5.81,5.81,0,1,1,11.62,0,27.46,27.46,0,0,1-8.37,19.26,30.85,30.85,0,0,1-21.13,8.81Zm-32-9.09a3.27,3.27,0,0,0,0,6.54h45.2a28.31,28.31,0,0,0,19.39-8.08,24.9,24.9,0,0,0,7.62-17.45,3.27,3.27,0,1,0-6.54,0c0,11.07-10.65,18.76-20.6,19Z"/><path class="cls-2" d="M180.05,185.19H134.92a4.54,4.54,0,0,1,0-9.08h45.13a4.54,4.54,0,0,1,0,9.08Z"/><path class="cls-2" d="M180.05,186.46H134.92a5.81,5.81,0,1,1,0-11.62h45.13a5.81,5.81,0,0,1,0,11.62Zm-45.13-9.08a3.27,3.27,0,0,0,0,6.54h45.13a3.27,3.27,0,1,0,0-6.54Z"/><path class="cls-2" d="M226.58,185.19a4.54,4.54,0,0,1-4.54-4.54c0-8.45-4.42-18.49-11.54-26.19-8.22-8.89-19-13.79-30.45-13.79H134.92a4.54,4.54,0,0,1,0-9.08h45.13c14,0,27.16,5.93,37.12,16.71,8.74,9.45,14,21.55,14,32.36A4.54,4.54,0,0,1,226.58,185.19Z"/><path class="cls-2" d="M226.58,186.46a5.82,5.82,0,0,1-5.81-5.81c0-8.15-4.29-17.85-11.2-25.33-8-8.63-18.45-13.38-29.51-13.38H134.92a5.81,5.81,0,1,1,0-11.62h45.13c14.34,0,27.85,6.08,38.05,17.12,8.95,9.68,14.29,22.1,14.29,33.22A5.82,5.82,0,0,1,226.58,186.46Zm-91.65-53.6a3.27,3.27,0,0,0,0,6.54h45.13c11.78,0,22.92,5,31.38,14.2,7.33,7.93,11.88,18.29,11.88,27.06a3.27,3.27,0,1,0,6.54,0c0-10.5-5.09-22.27-13.61-31.49-9.71-10.51-22.56-16.3-36.18-16.3Z"/><path class="cls-2" d="M203.87,185.19a4.54,4.54,0,0,1-4.54-4.54c0-8.38-7.92-17.72-19.28-17.72H134.92a4.54,4.54,0,0,1,0-9.08h45.13A28.74,28.74,0,0,1,200.13,162a26.32,26.32,0,0,1,8.28,18.65A4.54,4.54,0,0,1,203.87,185.19Z"/><path class="cls-2" d="M203.87,186.46a5.82,5.82,0,0,1-5.81-5.81c0-7.78-7.4-16.45-18-16.45H134.92a5.81,5.81,0,0,1,0-11.62h45.13a30,30,0,0,1,21,8.51,27.59,27.59,0,0,1,8.67,19.56A5.82,5.82,0,0,1,203.87,186.46Zm-68.95-31.34a3.27,3.27,0,0,0,0,6.54h45.13a20.84,20.84,0,0,1,14.8,6.09,18.58,18.58,0,0,1,5.75,12.9,3.27,3.27,0,1,0,6.54,0,25,25,0,0,0-7.9-17.74,27.48,27.48,0,0,0-19.19-7.79Z"/><path class="cls-3" d="M382.37,173.29V100.16h48.72v10.2H393.91V132.2H425v9.58H393.91v31.52Z"/><path class="cls-3" d="M492.17,163.1v10.2H442V100.16h49.23v10.2h-37.7v20.81h32.65v9.58H453.54V163.1Z"/><path class="cls-3" d="M525.64,100.16h10.09l28.84,73.13H552.42l-7.73-19.88H516.48l-7.62,19.88H496.6Zm16.79,44.7-11.74-31.41-12.15,31.41Z"/><path class="cls-3" d="M620.09,110.36H595.79v62.93H584.15V110.36H559.74v-10.2h60.36Z"/><path class="cls-3" d="M660.37,163.4a18.49,18.49,0,0,0,9.58-2.27,18.06,18.06,0,0,0,6.13-5.92,25,25,0,0,0,3.3-8.34,47,47,0,0,0,1-9.63V100.16H692v37.08a55.41,55.41,0,0,1-1.75,14.16A32.71,32.71,0,0,1,684.68,163a26.54,26.54,0,0,1-9.84,7.88,33.27,33.27,0,0,1-14.47,2.88,32.57,32.57,0,0,1-14.78-3,26.61,26.61,0,0,1-9.73-8.14,33.42,33.42,0,0,1-5.36-11.69,56.25,56.25,0,0,1-1.65-13.7V100.16h11.54v37.08a47.43,47.43,0,0,0,1,9.73,24.93,24.93,0,0,0,3.3,8.34,17.47,17.47,0,0,0,6.18,5.87A18.88,18.88,0,0,0,660.37,163.4Z"/><path class="cls-3" d="M707.34,173.29V100.16h31.83a20.31,20.31,0,0,1,9.12,2.06,23.35,23.35,0,0,1,7.16,5.41,25.51,25.51,0,0,1,4.69,7.62,23.37,23.37,0,0,1,1.7,8.7,24.4,24.4,0,0,1-1,7.11,24.93,24.93,0,0,1-2.88,6.28,20.27,20.27,0,0,1-4.53,5,18.67,18.67,0,0,1-5.87,3.14l17.2,27.81H751.63l-15.86-25.44H718.87v25.44Zm11.54-35.64h20.19a9.3,9.3,0,0,0,4.48-1.08,10.59,10.59,0,0,0,3.45-3,15.15,15.15,0,0,0,2.27-4.38,16.52,16.52,0,0,0,.82-5.25,14.15,14.15,0,0,0-1-5.25,15.1,15.1,0,0,0-2.57-4.33,12.25,12.25,0,0,0-3.71-2.94,9.5,9.5,0,0,0-4.38-1.08H718.87Z"/><path class="cls-3" d="M825.58,163.1v10.2H775.42V100.16h49.23v10.2H787v20.81H819.6v9.58H787V163.1Z"/><path class="cls-3" d="M837.53,173.29V100.16h26A38.7,38.7,0,0,1,879,103a31.93,31.93,0,0,1,11.12,7.83,32.82,32.82,0,0,1,6.75,11.59,43.61,43.61,0,0,1,2.27,14.16,42.81,42.81,0,0,1-2.52,15.09,33,33,0,0,1-7.16,11.54,31.78,31.78,0,0,1-11.23,7.42,39.51,39.51,0,0,1-14.73,2.63Zm49.85-36.67a33.73,33.73,0,0,0-1.6-10.61,23.12,23.12,0,0,0-4.69-8.29,21.77,21.77,0,0,0-7.52-5.41,24.75,24.75,0,0,0-10.09-2H849.06V163.1h14.42a24.8,24.8,0,0,0,10.25-2,21.07,21.07,0,0,0,7.52-5.56,24,24,0,0,0,4.58-8.39A34.37,34.37,0,0,0,887.38,136.62Z"/><path class="cls-3" d="M967.1,173.81a32.08,32.08,0,0,1-14.27-3.14,35.51,35.51,0,0,1-11.07-8.34,37.65,37.65,0,0,1-7.16-11.9,38.52,38.52,0,0,1-2.52-13.7,37.35,37.35,0,0,1,2.68-14,38.87,38.87,0,0,1,7.36-11.84,35.19,35.19,0,0,1,11.12-8.19,32.53,32.53,0,0,1,14.06-3,31.25,31.25,0,0,1,14.27,3.25,35.92,35.92,0,0,1,11,8.5,39.06,39.06,0,0,1,7.11,11.9,38.14,38.14,0,0,1-.1,27.55,37,37,0,0,1-7.36,11.79,36.17,36.17,0,0,1-11.18,8.14A32.28,32.28,0,0,1,967.1,173.81Zm-23.28-37.08a30.77,30.77,0,0,0,1.65,10,27.12,27.12,0,0,0,4.69,8.55,22.9,22.9,0,0,0,7.36,5.92,20.92,20.92,0,0,0,9.68,2.21,20.31,20.31,0,0,0,9.84-2.32A23.16,23.16,0,0,0,984.3,155a27.61,27.61,0,0,0,4.53-8.55,31,31,0,0,0,1.54-9.68,30.67,30.67,0,0,0-1.65-10,26.68,26.68,0,0,0-4.69-8.45,23.45,23.45,0,0,0-7.31-5.87,20.41,20.41,0,0,0-9.53-2.21,20.61,20.61,0,0,0-9.89,2.32,23.55,23.55,0,0,0-7.31,6,27,27,0,0,0-4.58,8.5A30.56,30.56,0,0,0,943.82,136.73Z"/><path class="cls-3" d="M1025.71,121.79v51.5h-11.54V100.16h9.06l41.82,52.74V100.27h11.64v73h-9.58Z"/><path class="cls-3" d="M1118.61,173.29v-73h11.54v37.59l34.4-37.7h12.77l-28.84,32.34L1179,173.29h-12.87l-24.72-33.68-11.23,11.64v22Z"/><path class="cls-3" d="M1186.59,173.29V100.16h31.83a20.31,20.31,0,0,1,9.12,2.06,23.34,23.34,0,0,1,7.16,5.41,25.51,25.51,0,0,1,4.69,7.62,23.38,23.38,0,0,1,1.7,8.7,24.42,24.42,0,0,1-1,7.11,25,25,0,0,1-2.88,6.28,20.3,20.3,0,0,1-4.53,5,18.68,18.68,0,0,1-5.87,3.14l17.2,27.81h-13.08L1215,147.85h-16.89v25.44Zm11.54-35.64h20.19a9.3,9.3,0,0,0,4.48-1.08,10.59,10.59,0,0,0,3.45-3,15.15,15.15,0,0,0,2.27-4.38,16.52,16.52,0,0,0,.82-5.25,14.16,14.16,0,0,0-1-5.25,15.1,15.1,0,0,0-2.58-4.33,12.25,12.25,0,0,0-3.71-2.94,9.5,9.5,0,0,0-4.38-1.08h-19.57Z"/><path class="cls-3" d="M1285.06,173.81a32.08,32.08,0,0,1-14.27-3.14,35.51,35.51,0,0,1-11.07-8.34,37.65,37.65,0,0,1-7.16-11.9,38.51,38.51,0,0,1-2.52-13.7,37.36,37.36,0,0,1,2.68-14,38.87,38.87,0,0,1,7.36-11.84,35.19,35.19,0,0,1,11.12-8.19,32.53,32.53,0,0,1,14.06-3,31.24,31.24,0,0,1,14.27,3.25,35.92,35.92,0,0,1,11,8.5,39.05,39.05,0,0,1,7.11,11.9,38.14,38.14,0,0,1-.1,27.55,37,37,0,0,1-7.36,11.79,36.17,36.17,0,0,1-11.18,8.14A32.27,32.27,0,0,1,1285.06,173.81Zm-23.28-37.08a30.76,30.76,0,0,0,1.65,10,27.12,27.12,0,0,0,4.69,8.55,22.9,22.9,0,0,0,7.36,5.92,20.92,20.92,0,0,0,9.68,2.21,20.32,20.32,0,0,0,9.84-2.32,23.16,23.16,0,0,0,7.26-6.13,27.63,27.63,0,0,0,4.53-8.55,31.05,31.05,0,0,0,1.54-9.68,30.67,30.67,0,0,0-1.65-10,26.68,26.68,0,0,0-4.69-8.45,23.45,23.45,0,0,0-7.31-5.87,21.93,21.93,0,0,0-19.42.1,23.54,23.54,0,0,0-7.31,6,27,27,0,0,0-4.58,8.5A30.56,30.56,0,0,0,1261.78,136.73Z"/><path class="cls-3" d="M1355.41,100.47h10.92l9,24.82,9.06-24.82h10.82L1382.7,133l10.92,26.88,22.76-59.74h12.67l-30.18,73.13H1389l-13.6-32.75-13.7,32.75h-9.89l-30.18-73.13h12.57l22.87,59.74L1368,133Z"/><path class="cls-3" d="M1437.71,173.29V100.16h26a38.69,38.69,0,0,1,15.5,2.88,31.92,31.92,0,0,1,11.12,7.83,32.83,32.83,0,0,1,6.75,11.59,43.64,43.64,0,0,1,2.27,14.16,42.81,42.81,0,0,1-2.52,15.09,33,33,0,0,1-7.16,11.54,31.79,31.79,0,0,1-11.23,7.42,39.51,39.51,0,0,1-14.73,2.63Zm49.85-36.67A33.7,33.7,0,0,0,1486,126a23.11,23.11,0,0,0-4.69-8.29,21.77,21.77,0,0,0-7.52-5.41,24.75,24.75,0,0,0-10.09-2h-14.42V163.1h14.42a24.8,24.8,0,0,0,10.25-2,21.08,21.08,0,0,0,7.52-5.56,24,24,0,0,0,4.58-8.39A34.37,34.37,0,0,0,1487.56,136.62Z"/><path class="cls-3" d="M1554.71,117.36a15.94,15.94,0,0,0-3-2.42,30,30,0,0,0-4.58-2.42,33.63,33.63,0,0,0-5.77-1.85,28.76,28.76,0,0,0-6.44-.72q-7.31,0-10.76,2.68a8.86,8.86,0,0,0-3.45,7.42,8,8,0,0,0,1.08,4.38,9.26,9.26,0,0,0,3.35,3,26.09,26.09,0,0,0,5.66,2.27q3.4,1,7.93,2.11a90.84,90.84,0,0,1,10,3,28.63,28.63,0,0,1,7.57,4,16.36,16.36,0,0,1,4.79,5.82,18.87,18.87,0,0,1,1.7,8.39,20.35,20.35,0,0,1-2.11,9.58,18,18,0,0,1-5.77,6.54,25.44,25.44,0,0,1-8.5,3.71,43.71,43.71,0,0,1-10.4,1.19,51.86,51.86,0,0,1-16.12-2.52,46.14,46.14,0,0,1-14.06-7.36l5.25-9.89a24.29,24.29,0,0,0,3.86,3,35.92,35.92,0,0,0,5.87,3,51.3,51.3,0,0,0,7.26,2.37,33.33,33.33,0,0,0,8.14,1q6.8,0,10.51-2.37a7.78,7.78,0,0,0,3.71-7,7.51,7.51,0,0,0-1.39-4.63,12,12,0,0,0-4-3.24,34.62,34.62,0,0,0-6.28-2.52q-3.71-1.13-8.45-2.37a86.84,86.84,0,0,1-9.53-3,23.78,23.78,0,0,1-6.75-3.86,15.15,15.15,0,0,1-4.07-5.3,17.62,17.62,0,0,1-1.39-7.37,21.24,21.24,0,0,1,2.06-9.53,20.37,20.37,0,0,1,5.61-7,24.56,24.56,0,0,1,8.39-4.27,36.7,36.7,0,0,1,10.51-1.44,38.56,38.56,0,0,1,13.7,2.37,45.4,45.4,0,0,1,11,5.87Z"/><path class="cls-3" d="M1574.39,173.29V100.16h30.69a20.31,20.31,0,0,1,9.12,2.06,23.35,23.35,0,0,1,7.16,5.41,25.51,25.51,0,0,1,4.69,7.62,23.38,23.38,0,0,1,1.7,8.7,25.25,25.25,0,0,1-1.6,8.91,25,25,0,0,1-4.48,7.62,21.79,21.79,0,0,1-7,5.36,20.07,20.07,0,0,1-9,2h-19.78v25.44Zm11.54-35.64H1605a9.68,9.68,0,0,0,4.48-1,10.27,10.27,0,0,0,3.45-2.88,14.43,14.43,0,0,0,2.27-4.33A17.2,17.2,0,0,0,1616,124a15.75,15.75,0,0,0-.93-5.56,13.06,13.06,0,0,0-2.58-4.27,11.79,11.79,0,0,0-3.76-2.78,10.31,10.31,0,0,0-4.38-1h-18.44Z"/><path class="cls-3" d="M1655.45,100.16h10.09l28.84,73.13h-12.15l-7.72-19.88h-28.22l-7.62,19.88H1626.4Zm16.79,44.7-11.74-31.41-12.15,31.41Z"/><path class="cls-3" d="M1696.13,136.21a38.31,38.31,0,0,1,2.37-13.13,36.29,36.29,0,0,1,7-11.74,35.08,35.08,0,0,1,11.17-8.39,33.84,33.84,0,0,1,14.94-3.19q10,0,17.1,4.43a28.78,28.78,0,0,1,10.71,11.54l-9.06,6.08a20.72,20.72,0,0,0-3.71-5.56,18.11,18.11,0,0,0-4.74-3.61,20.43,20.43,0,0,0-5.36-1.91,26.9,26.9,0,0,0-5.36-.57,21.06,21.06,0,0,0-10.09,2.32,22.41,22.41,0,0,0-7.26,6.13,27.34,27.34,0,0,0-4.43,8.55,31.36,31.36,0,0,0-1.49,9.48,29.72,29.72,0,0,0,1.75,10.2,27.6,27.6,0,0,0,4.89,8.55,24.07,24.07,0,0,0,7.47,5.92,20.48,20.48,0,0,0,9.48,2.21,23.88,23.88,0,0,0,5.51-.67,20.54,20.54,0,0,0,5.46-2.16,21.83,21.83,0,0,0,4.84-3.76,18.79,18.79,0,0,0,3.66-5.46l9.58,5.46a22.38,22.38,0,0,1-4.94,7.26,31.5,31.5,0,0,1-7.21,5.3,37,37,0,0,1-8.5,3.3,35.89,35.89,0,0,1-8.81,1.13,30.28,30.28,0,0,1-14.11-3.3,37,37,0,0,1-11-8.6,39.6,39.6,0,0,1-7.21-12.05A38.26,38.26,0,0,1,1696.13,136.21Z"/><path class="cls-3" d="M1821.38,163.1v10.2h-50.16V100.16h49.23v10.2h-37.7v20.81h32.65v9.58h-32.65V163.1Z"/></svg>