<svg id="Layer_1" data-name="Layer 1" xmlns="http://www.w3.org/2000/svg" viewBox="0 0 350 350"><defs><style>.cls-1{fill:#333;}.cls-2{fill:#fff;}</style></defs><title>4</title><circle class="cls-1" cx="175.5" cy="175" r="148.13"/><path class="cls-2" d="M174.4,112H103.48a7.14,7.14,0,0,1,0-14.27H174.4a7.14,7.14,0,0,1,0,14.27Z"/><path class="cls-2" d="M174.4,114H103.48a9.13,9.13,0,1,1,0-18.27H174.4a9.13,9.13,0,1,1,0,18.27ZM103.48,99.69a5.14,5.14,0,1,0,0,10.28H174.4a5.14,5.14,0,1,0,0-10.28Z"/><path class="cls-2" d="M174.4,181.94H103.48a7.14,7.14,0,0,1,0-14.27H174.4c17.94,0,34.94-7.7,47.85-21.67,11.19-12.1,18.13-27.88,18.13-41.16a7.14,7.14,0,0,1,14.27,0c0,17-8.2,36-21.92,50.85C217.09,172.61,196.37,181.94,174.4,181.94Z"/><path class="cls-2" d="M174.4,183.94H103.48a9.13,9.13,0,1,1,0-18.27H174.4c17.38,0,33.85-7.47,46.38-21,10.86-11.75,17.6-27,17.6-39.81a9.13,9.13,0,1,1,18.27,0c0,17.47-8.39,37-22.45,52.21C218.17,174.38,196.93,183.94,174.4,183.94Zm-70.92-14.27a5.14,5.14,0,1,0,0,10.28H174.4c21.41,0,41.6-9.1,56.87-25.62,13.4-14.5,21.39-33,21.39-49.49a5.14,5.14,0,1,0-10.28,0c0,13.77-7.15,30.06-18.67,42.52-13.3,14.39-30.81,22.32-49.32,22.32Z"/><path class="cls-2" d="M153.8,147H103.48a7.14,7.14,0,0,1,0-14.27h0c23.77,0,68.94,0,70.8,0,14.7-.35,30.42-11.61,30.42-27.85a7.14,7.14,0,0,1,14.27,0c0,10.44-4.58,21-12.56,28.85a46.49,46.49,0,0,1-31.85,13.27Z"/><path class="cls-2" d="M153.8,149H103.48a9.13,9.13,0,0,1,0-18.27c23.77,0,68.94,0,70.79,0,13.71-.33,28.43-10.79,28.43-25.85a9.13,9.13,0,1,1,18.27,0c0,11-4.8,22-13.16,30.27a48.48,48.48,0,0,1-33.21,13.85Zm-50.32-14.28a5.14,5.14,0,0,0,0,10.28h71A44.49,44.49,0,0,0,205,132.26c7.61-7.52,12-17.52,12-27.43a5.14,5.14,0,1,0-10.28,0c0,17.39-16.74,29.48-32.37,29.85C172.43,134.69,127.25,134.68,103.48,134.68Z"/><path class="cls-2" d="M174.4,252.31H103.48a7.14,7.14,0,0,1,0-14.27H174.4a7.14,7.14,0,0,1,0,14.27Z"/><path class="cls-2" d="M174.4,254.31H103.48a9.13,9.13,0,1,1,0-18.27H174.4a9.13,9.13,0,0,1,0,18.27ZM103.48,240a5.14,5.14,0,0,0,0,10.28H174.4a5.14,5.14,0,0,0,0-10.28Z"/><path class="cls-2" d="M247.52,252.31a7.14,7.14,0,0,1-7.14-7.14c0-13.29-6.95-29.06-18.13-41.16-12.91-14-29.91-21.67-47.85-21.67H103.48a7.14,7.14,0,0,1,0-14.27H174.4c22,0,42.69,9.33,58.33,26.26,13.73,14.86,21.92,33.87,21.92,50.85A7.14,7.14,0,0,1,247.52,252.31Z"/><path class="cls-2" d="M247.52,254.31a9.15,9.15,0,0,1-9.13-9.13c0-12.8-6.75-28.06-17.6-39.81-12.53-13.56-29-21-46.38-21H103.48a9.13,9.13,0,1,1,0-18.27H174.4c22.53,0,43.77,9.55,59.8,26.9,14.06,15.22,22.45,34.73,22.45,52.21A9.15,9.15,0,0,1,247.52,254.31Zm-144-84.25a5.14,5.14,0,1,0,0,10.28H174.4c18.51,0,36,7.93,49.32,22.32,11.51,12.46,18.67,28.75,18.67,42.52a5.14,5.14,0,1,0,10.28,0c0-16.49-8-35-21.39-49.49-15.26-16.52-35.46-25.62-56.87-25.62Z"/><path class="cls-2" d="M211.83,252.31a7.14,7.14,0,0,1-7.14-7.14c0-13.17-12.44-27.85-30.3-27.85H103.48a7.14,7.14,0,0,1,0-14.27H174.4A45.17,45.17,0,0,1,206,215.86c8.27,8,13,18.69,13,29.31A7.14,7.14,0,0,1,211.83,252.31Z"/><path class="cls-2" d="M211.83,254.31a9.15,9.15,0,0,1-9.13-9.13c0-12.23-11.62-25.85-28.3-25.85H103.48a9.13,9.13,0,1,1,0-18.27H174.4a47.16,47.16,0,0,1,32.94,13.37C216,222.8,221,234,221,245.17A9.15,9.15,0,0,1,211.83,254.31ZM103.48,205a5.14,5.14,0,0,0,0,10.28H174.4a32.75,32.75,0,0,1,23.25,9.57c5.75,5.72,9,13.11,9,20.28a5.14,5.14,0,1,0,10.28,0c0-10.08-4.52-20.24-12.41-27.88A43.18,43.18,0,0,0,174.4,205Z"/></svg>