<svg id="Layer_1" data-name="Layer 1" xmlns="http://www.w3.org/2000/svg" viewBox="0 0 1474 405"><defs><style>.cls-1{fill:#5cb85c;}.cls-2,.cls-5,.cls-6{fill:#fff;}.cls-3{fill:none;stroke:#fff;}.cls-3,.cls-5,.cls-6{stroke-linecap:round;stroke-miterlimit:10;}.cls-3,.cls-5{stroke-width:35px;}.cls-4{fill:#dbdbdb;}.cls-5,.cls-6{stroke:#dbdbdb;}.cls-6{stroke-width:28px;}</style></defs><title>approved-icon</title><path class="cls-1" d="M1272,399c-108.35,0-196.5-88.15-196.5-196.5S1163.65,6,1272,6s196.5,88.15,196.5,196.5S1380.35,399,1272,399Z"/><path class="cls-2" d="M1272,6.5a196.05,196.05,0,0,1,76.29,376.6A196.05,196.05,0,0,1,1195.71,21.9,194.77,194.77,0,0,1,1272,6.5m0-1c-108.8,0-197,88.2-197,197s88.2,197,197,197,197-88.2,197-197-88.2-197-197-197Z"/><polyline class="cls-3" points="1193 194.32 1257.2 261.03 1373 143.97"/><path class="cls-4" d="M202,21.5a181,181,0,0,1,128,309,181,181,0,0,1-256-256,179.82,179.82,0,0,1,128-53m0-16C93.2,5.5,5,93.7,5,202.5s88.2,197,197,197,197-88.2,197-197S310.8,5.5,202,5.5Z"/><line class="cls-5" x1="144.1" y1="261.03" x2="259.9" y2="143.97"/><line class="cls-5" x1="260.53" y1="260.4" x2="143.47" y2="144.6"/><path class="cls-4" d="M737,22A181,181,0,0,1,865,331,181,181,0,0,1,609,75,179.82,179.82,0,0,1,737,22m0-16C628.2,6,540,94.2,540,203s88.2,197,197,197,197-88.2,197-197S845.8,6,737,6Z"/><polyline class="cls-6" points="607 203 678 203 711 99 750 297 786 203 865 203"/></svg>