<svg id="Layer_1" data-name="Layer 1" xmlns="http://www.w3.org/2000/svg" viewBox="0 0 406 1474"><defs><style>.cls-1{fill:#fdb540;}.cls-2{fill:#fff;}.cls-3,.cls-5{fill:none;stroke:#fff;stroke-linecap:round;stroke-miterlimit:10;}.cls-3{stroke-width:28px;}.cls-4{fill:#5cb85c;}.cls-5{stroke-width:35px;}.cls-6{fill:#d9534f;}</style></defs><title>project-status-vertical</title><path class="cls-1" d="M203,933.5C94.65,933.5,6.5,845.35,6.5,737S94.65,540.5,203,540.5,399.5,628.65,399.5,737,311.35,933.5,203,933.5Z"/><path class="cls-2" d="M203,541a195.38,195.38,0,1,1-76.29,15.4A194.77,194.77,0,0,1,203,541m0-1C94.2,540,6,628.2,6,737S94.2,934,203,934s197-88.2,197-197S311.8,540,203,540Z"/><polyline class="cls-3" points="73 737 144 737 177 633 216 831 252 737 331 737"/><path class="cls-4" d="M203,1463.5C94.65,1463.5,6.5,1375.35,6.5,1267S94.65,1070.5,203,1070.5s196.5,88.15,196.5,196.5S311.35,1463.5,203,1463.5Z"/><path class="cls-2" d="M203,1071a195.38,195.38,0,1,1-76.29,15.4A194.77,194.77,0,0,1,203,1071m0-1C94.2,1070,6,1158.2,6,1267s88.2,197,197,197,197-88.2,197-197-88.2-197-197-197Z"/><polyline class="cls-5" points="124 1258.82 188.2 1325.53 294 1218.47"/><path class="cls-6" d="M203,403.5C94.65,403.5,6.5,315.35,6.5,207S94.65,10.5,203,10.5,399.5,98.65,399.5,207,311.35,403.5,203,403.5Z"/><path class="cls-2" d="M203,11a196.05,196.05,0,0,1,76.29,376.6A196.05,196.05,0,0,1,126.71,26.4,194.77,194.77,0,0,1,203,11m0-1C94.2,10,6,98.2,6,207S94.2,404,203,404s197-88.2,197-197S311.8,10,203,10Z"/><line class="cls-5" x1="145.1" y1="265.53" x2="260.9" y2="148.47"/><line class="cls-5" x1="261.53" y1="264.9" x2="144.47" y2="149.1"/></svg>