<svg id="Layer_1" data-name="Layer 1" xmlns="http://www.w3.org/2000/svg" viewBox="0 0 406 1474"><defs><style>.cls-1{fill:#dbdbdb;}.cls-2,.cls-3,.cls-5{fill:#fff;}.cls-2,.cls-3{stroke:#dbdbdb;}.cls-2,.cls-3,.cls-6{stroke-linecap:round;stroke-miterlimit:10;}.cls-2,.cls-6{stroke-width:35px;}.cls-3{stroke-width:28px;}.cls-4{fill:#d9534f;}.cls-6{fill:none;stroke:#fff;}</style></defs><title>returned-icon-vertical</title><path class="cls-1" d="M203,1086a181,181,0,1,1-128,53,179.82,179.82,0,0,1,128-53m0-16C94.2,1070,6,1158.2,6,1267s88.2,197,197,197,197-88.2,197-197-88.2-197-197-197Z"/><polyline class="cls-2" points="124 1258.82 188.2 1325.53 294 1218.47"/><path class="cls-1" d="M203,556A181,181,0,1,1,75,609a179.82,179.82,0,0,1,128-53m0-16C94.2,540,6,628.2,6,737S94.2,934,203,934s197-88.2,197-197S311.8,540,203,540Z"/><polyline class="cls-3" points="74 742 145 742 178 638 217 836 253 742 332 742"/><path class="cls-4" d="M203,403.5C94.65,403.5,6.5,315.35,6.5,207S94.65,10.5,203,10.5,399.5,98.65,399.5,207,311.35,403.5,203,403.5Z"/><path class="cls-5" d="M203,11a196.05,196.05,0,0,1,76.29,376.6A196.05,196.05,0,0,1,126.71,26.4,194.77,194.77,0,0,1,203,11m0-1C94.2,10,6,98.2,6,207S94.2,404,203,404s197-88.2,197-197S311.8,10,203,10Z"/><line class="cls-6" x1="145.1" y1="265.53" x2="260.9" y2="148.47"/><line class="cls-6" x1="261.53" y1="264.9" x2="144.47" y2="149.1"/></svg>