<svg id="Layer_1" data-name="Layer 1" xmlns="http://www.w3.org/2000/svg" viewBox="0 0 1474 405"><defs><style>.cls-1{fill:#dbdbdb;}.cls-2,.cls-4{fill:#fff;}.cls-2{stroke:#dbdbdb;stroke-width:35px;}.cls-2,.cls-5{stroke-linecap:round;stroke-miterlimit:10;}.cls-3{fill:#fdb540;}.cls-5{fill:none;stroke:#fff;stroke-width:28px;}</style></defs><title>warning-icon</title><path class="cls-1" d="M202,22A181,181,0,0,1,330,331,181,181,0,0,1,74,75,179.82,179.82,0,0,1,202,22m0-16C93.2,6,5,94.2,5,203S93.2,400,202,400s197-88.2,197-197S310.8,6,202,6Z"/><line class="cls-2" x1="144.1" y1="261.53" x2="259.9" y2="144.47"/><line class="cls-2" x1="260.53" y1="260.9" x2="143.47" y2="145.1"/><path class="cls-3" d="M737,399c-108.35,0-196.5-88.15-196.5-196.5S628.65,6,737,6,933.5,94.15,933.5,202.5,845.35,399,737,399Z"/><path class="cls-4" d="M737,6.5a196.05,196.05,0,0,1,76.29,376.6A196.05,196.05,0,0,1,660.71,21.9,194.77,194.77,0,0,1,737,6.5m0-1c-108.8,0-197,88.2-197,197s88.2,197,197,197,197-88.2,197-197S845.8,5.5,737,5.5Z"/><polyline class="cls-5" points="607 202.5 678 202.5 711 98.5 750 296.5 786 202.5 865 202.5"/><path class="cls-1" d="M1272,21.5a181,181,0,0,1,128,309,181,181,0,0,1-256-256,179.82,179.82,0,0,1,128-53m0-16c-108.8,0-197,88.2-197,197s88.2,197,197,197,197-88.2,197-197-88.2-197-197-197Z"/><polyline class="cls-2" points="1193 194.32 1257.2 261.03 1373 143.97"/></svg>